M48
;Layer_Color=9474304
;FILE_FORMAT=4:4
METRIC,LZ
;TYPE=PLATED
T01F00S00C0.3048
T02F00S00C0.4572
T03F00S00C0.5080
T04F00S00C0.6350
T05F00S00C0.7112
T06F00S00C0.7500
T07F00S00C0.8000
T08F00S00C1.1500
T09F00S00C1.4732
T10F00S00C2.5400
T11F00S00C2.9210
T12F00S00C3.2000
T13F00S00C5.4500
%
T01
X00985937Y00225782
X0098679Y00246888
X01062482Y00180594
X0116543Y0018669
X01168908Y00212852
X01163828Y0026035
X0103505Y0036957
X0123571Y0044958
X0143891
T02
X01134364Y00146812
T03
X0119888Y0038989
T04
X0123317Y0072009
X0124841
X0126365
X0127889
X01260602Y00733044
X01260094Y00776986
X01268257Y00791136
X0125857Y0080137
X01238723Y00801444
X01247937Y00791136
X01227617
X01288577
X0127381Y0080645
T05
X0134366Y0017653
Y0020193
Y0022733
Y0025273
Y0027813
X0136906Y0026543
Y0024003
Y0021463
Y0018923
Y0029083
X0131826
Y0026543
Y0024003
Y0021463
Y0018923
X0129286Y0020193
Y0022733
Y0025273
Y0027813
X0092837Y0028067
Y0026162
Y0024257
Y0022352
X0091313Y0021971
X0089408
X0092837Y0020447
Y0018542
Y0016637
Y0014732
Y0012827
Y0010922
Y0009017
X0091313Y0013843
X0089408
X0083185Y001397
Y0012065
Y001016
Y0008255
X0081407Y0007366
Y0009271
Y0011176
Y0013081
Y0014986
Y0016891
Y0018796
Y0020701
Y0022606
Y0024511
Y0026416
Y0028321
X0083185Y002921
Y0027305
Y00254
Y0023495
Y002159
Y0019685
Y001778
Y0015875
X0070485Y0015367
Y0013462
Y0011557
Y0009652
Y0007747
X0068707Y0006858
Y0008763
Y0010668
Y0012573
Y0014478
Y0016383
Y0018288
Y0020193
Y0022098
Y0024003
Y0025908
Y0027813
X0070485Y0028702
Y0026797
Y0024892
Y0022987
Y0021082
Y0019177
Y0017272
X0058166Y0017018
Y0015113
Y0013208
Y0011303
Y0009398
Y0007493
Y0018923
Y0020828
Y0022733
Y0024638
Y0026543
Y0028448
X0032893Y0025273
X0030607
X0028067
X0025781
X0023241
X0020701
X0018161
X0017145Y0022733
X0019431
X0021971
X0024511
X0027051
X0029337
X0031623
X0034163
X0032893Y0020193
X0030607
X0028067
X0025781
X0023241
X0020701
X0018161
X0016129
X0016891Y0017653
X0019431
X0021971
X0024511
X0027051
X0029337
X0031623
X0034163
X0030607Y0015113
X0028067
X0025781
X0023241
X0020701
X0018161
X0015621
X0019431Y0027813
X0021971
X0024511
X0027051
X0029337
X0004953Y0023749
Y0021209
Y0018669
Y0016129
X0005461Y0035433
X0007747
X0010287
X0012827
X0014097Y0037973
X0011557
X0009017
X0006477
X0014351Y0045593
X0013081Y0048133
X0014351Y0050673
X0004953Y0055499
Y0058039
X00051583Y00606888
X0004953Y0063119
X0002921Y0061849
Y0059309
Y0056769
X0004191Y0065913
X0006731
X0005461Y0068453
X0002921
X0018161
X0020701
X0023241
X0025781
X0028321
X0027051Y0065913
X0024511
X0021971
X0019431
X0016891
X0018161Y0063373
X0020701
X0023241
X0025781
X0028321
X0027051Y0060833
X0024511
X0021971
X0019431
X0018161Y0058293
X0020701
X0023241
X0025781
X0028321
X0030861
X0029591Y0060833
Y0055753
X0027051
X0024511
X0021971
X0019431
X0018161Y0053213
X0015621
X0016891Y0050673
X0019431
X0021971
X0024511
X0027051
X0029591
X0028321Y0053213
X0025781
X0023241
X0020701
Y0048133
X0018161
X0015621
X0016891Y0045593
X0019431
X0021971
X0024511
X0027051
X0029591
X0028321Y0043053
X0025781
X0023241
X0020701
X0018161
X0019431Y0037973
X0021971
X0020701Y0035433
X0018161
X0015367
X0016637Y0037973
X0019431Y0032893
X0021971
X0020701Y0030353
X0023241
X0018161
X0023241Y0035433
Y0048133
X0025781
X0028321
X0030861Y0043053
X0048641Y0048133
X0051181
X0053721
X0052451Y0050673
X0049911
X0048641Y0053213
X0051181
X0053721
X0052451Y0055753
X0049911
X0048641Y0058293
X0051181
X0053721
X0052451Y0060833
X0049911
X0048641Y0063373
X0051181
X0053721
X0052451Y0065913
X0049911
X0051181Y0068453
X0053721
X0029591Y0065913
X0054991
X0057531
X0060071
X0062611
X0065151
X0066421Y0063373
X0063881
X0061341
X0058801
X0056261
X0054991Y0060833
X0057531
X0060071
X0062611
X0065151
X0066421Y0058293
X0063881
X0061341
X0058801
X0056261
X0057531Y0055753
X0060071
X0062611
X0065151
X0066421Y0053213
X0063881
X0061341
X0058801
X0056261
X0057531Y0050673
X0060071
X0062611
X0065151
X0063881Y0048133
X0061341
X0058801
X0054991Y0050673
Y0055753
X0056261Y0068453
X0058801
X0061341
X0063881
X0066421
X0086106Y0067818
X0088646
X0091186
X0093726
X0092456Y0065278
X0089916
X0087376
X0084836
X0086106Y0062738
X0088646
X0091186
X0093726
X0092456Y0060198
X0089916
X0087376
X0084836
X0082296
X0083566Y0062738
Y0057658
X0086106
X0088646
X0091186
X0093726
X0092456Y0055118
X0089916
X0087376
X0084836
X0082296
X0083566Y0052578
X0086106
X0088646
X0091186
X0093726
X0092456Y0050038
X0089916
X0087376
X0084836
X0086106Y0047498
X0088646
X0091186
X0093726
X0092456Y0044958
X0089916
X0087376
X0084836
X0086106Y0042418
X0088646
X0091186
X0093726
X0092837Y0037592
Y0035687
Y0033782
Y0031877
Y0029972
X0091313Y0030353
X0089408
X0083185Y0031115
Y003302
Y0034925
Y003683
Y0038735
X0081407Y0037846
Y0039751
Y0035941
Y0034036
Y0032131
Y0030226
X0070485Y0030607
Y0032512
Y0034417
Y0036322
X0068707Y0035433
Y0037338
Y0033528
Y0031623
Y0029718
X0058166Y0030353
Y0032258
Y0034163
Y0036068
Y0037973
Y0039878
X0096266Y0042418
X0098806
X0100076Y0044958
X0097536
X0094996
X0096266Y0047498
X0098806
X0100076Y0050038
X0097536
X0094996
X0096266Y0052578
X0098806
X0100076Y0055118
X0097536
X0094996
X0096266Y0057658
X0098806
X0100076Y0060198
X0097536
X0094996
X0096266Y0062738
X0098806
X0101346
X0102616Y0065278
X0100076
X0097536
X0094996
X0096266Y0067818
X0098806
X01013808Y00680528
X0117221Y0065913
Y0063373
X0119761
X0122301
X0124841
Y0060833
X0123571Y0059563
Y0062103
Y0064643
X0122301Y0065913
X0119761
X0118491Y0064643
X0121031
X0129921Y0064897
X0132461
X0131191Y0062357
X0129921Y0059817
X0132461
X0131191Y0057658
X0132461Y0055499
X0129921
X0131191Y0067437
X0131826Y0036703
Y0034163
Y0031623
X0129286Y0030353
Y0032893
Y0035433
X0134366
Y0032893
Y0030353
X0136906Y0031623
Y0034163
Y0036703
X0139446Y0035433
Y0037973
X0141986Y0039243
Y0041783
X0144526Y0040513
Y0037973
X0147066Y0036703
Y0039243
Y0041783
X0146177Y0049149
Y0051689
X0148209Y0050673
X0143383
Y0048133
X0141097Y0049403
Y0051943
X0138811Y0050673
Y0053213
X0136271Y0053086
X0133731
X0135001Y0055499
X0133731Y0057658
X0136271
X0135001Y0059817
X0133731Y0062357
X0136271
X0135001Y0064897
X0137541
X0138811Y0067437
X0136271
X0133731
X0141351Y0067183
X0141986Y0036703
X0140081Y0069977
X0137541
X0135001
X0134239Y0072009
X0136271Y0072517
X0138811
X0141351
X0142367Y0079883
X0131191Y0072517
X0129921Y0069977
X0132461
X0102616Y0070358
X0100076
X0097536
X0098806Y0072898
X0101346
X0091186
X0088646
X0086106
X0087376Y0070358
X0089916
X0092456
X0084836
X0065151Y0070993
X0062611
X0060071
X0057531
X0054991
X0056261Y0073533
X0058801
X0061341
X0063881
X0066421
X0065151Y0076073
X0062611
X0060071
X0057531
X0054991
X0056261Y0078613
X0058801
X0061341
X0063881
X0066421
X0065151Y0081153
X0062611
X0060071
X0057531
X0054991
X0052451
X0053721Y0078613
X0051181
X0052451Y0076073
X0053721Y0073533
X0051181
X0052451Y0070993
X0043561Y0078613
X0041021
X0038481
X0035941
X0033401
X0030861
X0028321
X0025781
X0023241
X0020701
X0018161
X0015621
X0016891Y0076073
X0019431
X0021971
X0024511
X0027051
X0029591
X0028321Y0073533
X0025781
X0023241
X0020701
X0018161
X0015621
X0016891Y0070993
X0019431
X0021971
X0024511
X0027051
X0029591
X0030861Y0073533
X0029591Y0081153
X0027051
X0024511
X0021971
X0019431
X0016891
X0018161Y0083693
X0020701
X0023241
X0025781
X0028321
X0030861
X0033401
X0035941
X0038481
X0041021
X0043561
X0042291Y0081153
X0039751
X0037211
X0034671
X0032131
X0044831
X0015621Y0083693
X0013081
X0014351Y0081153
X0011811
X00095Y0081
X0010541Y0078613
X0013081
X0011811Y0076073
X0009271
X0006731
X00045Y00755
X0005461Y0073533
X0002921
X0004191Y0070993
X0006731
X0008001Y0073533
X0010541
X0013081
X0014351Y0076073
Y0070993
X0008001Y0078613
T06
X0105728Y0058928
X0109728
T07
X01288542Y0080518
X01308542
Y0082518
X01288542
T08
X004191Y00531416
Y00585916
Y00640416
X0114681
Y00585916
Y00531416
T09
X0073279Y00530098
Y00584454
Y0063881
T10
X0143256Y0018923
X01229868Y0017399
X0011557Y0016637
X0039751Y0039243
X00563372Y0047244
X01232408Y00526542
X0143637Y0069469
X00951484Y00724662
X001143Y0070993
T11
X0039243Y004572
X0076581
X0112395
Y0071247
X0076581
X0039243
T12
X0148Y0005
X0005
X0148Y00815
X0005
T13
X001143Y002794
Y005842
X014351
Y0029591
M30
