%TF.GenerationSoftware,Altium Limited,Altium Designer,26.7.1 (11)*%
G04 Layer_Physical_Order=1*
G04 Layer_Color=255*
G04 Board_Origin=9950000|19600000*
%FSLAX45Y45*%
%MOMM*%
%TF.SameCoordinates,27E0BA80-5853-4340-B22E-DC7C430619DA*%
%TF.FilePolarity,Positive*%
%TF.FileFunction,Copper,L1,Top,Signal*%
%TF.Part,Single*%
G01*
G75*
%TA.AperFunction,SMDPad,SMDef*%
%ADD10C,1.00000*%
%TA.AperFunction,SMDPad,CuDef*%
%ADD11R,1.30822X0.80650*%
%ADD12R,1.90000X4.40000*%
%ADD13R,1.15312X5.50312*%
%ADD14R,2.46380X5.56260*%
%ADD15R,1.80000X1.05000*%
G04:AMPARAMS|DCode=16|XSize=0.55mm|YSize=0.5mm|CornerRadius=0.0625mm|HoleSize=0mm|Usage=FLASHONLY|Rotation=180.000|XOffset=0mm|YOffset=0mm|HoleType=Round|Shape=RoundedRectangle|*
%AMROUNDEDRECTD16*
21,1,0.55000,0.37500,0,0,180.0*
21,1,0.42500,0.50000,0,0,180.0*
1,1,0.12500,-0.21250,0.18750*
1,1,0.12500,0.21250,0.18750*
1,1,0.12500,0.21250,-0.18750*
1,1,0.12500,-0.21250,-0.18750*
%
%ADD16ROUNDEDRECTD16*%
%ADD17R,1.10464X1.70620*%
%ADD18R,1.44780X0.55320*%
%ADD19R,1.20651X1.50822*%
%ADD20R,1.45000X0.95000*%
%ADD21R,1.45620X1.37807*%
%ADD22O,2.20000X0.60000*%
%ADD23R,1.10000X1.00000*%
%ADD24R,0.55320X1.44780*%
%ADD25R,1.20000X1.20000*%
%ADD26R,2.18440X1.52400*%
%ADD27R,1.00650X1.40822*%
%ADD28R,0.80650X1.30822*%
%ADD29R,0.58684X1.35872*%
%ADD30R,2.67000X1.20000*%
%ADD31R,1.85000X1.35000*%
G04:AMPARAMS|DCode=32|XSize=0.55mm|YSize=0.5mm|CornerRadius=0.0625mm|HoleSize=0mm|Usage=FLASHONLY|Rotation=90.000|XOffset=0mm|YOffset=0mm|HoleType=Round|Shape=RoundedRectangle|*
%AMROUNDEDRECTD32*
21,1,0.55000,0.37500,0,0,90.0*
21,1,0.42500,0.50000,0,0,90.0*
1,1,0.12500,0.18750,0.21250*
1,1,0.12500,0.18750,-0.21250*
1,1,0.12500,-0.18750,-0.21250*
1,1,0.12500,-0.18750,0.21250*
%
%ADD32ROUNDEDRECTD32*%
%ADD33R,0.60000X0.35000*%
%ADD34R,0.35000X0.60000*%
%ADD35R,1.35000X0.85000*%
%ADD36R,1.35872X0.58684*%
%ADD37R,1.11120X0.45080*%
%ADD38R,0.65000X0.65000*%
%ADD39R,1.22000X0.40000*%
G04:AMPARAMS|DCode=40|XSize=0.76mm|YSize=0.6604mm|CornerRadius=0.08255mm|HoleSize=0mm|Usage=FLASHONLY|Rotation=180.000|XOffset=0mm|YOffset=0mm|HoleType=Round|Shape=RoundedRectangle|*
%AMROUNDEDRECTD40*
21,1,0.76000,0.49530,0,0,180.0*
21,1,0.59490,0.66040,0,0,180.0*
1,1,0.16510,-0.29745,0.24765*
1,1,0.16510,0.29745,0.24765*
1,1,0.16510,0.29745,-0.24765*
1,1,0.16510,-0.29745,-0.24765*
%
%ADD40ROUNDEDRECTD40*%
%ADD41R,0.60000X0.60000*%
%ADD42R,4.50000X1.30000*%
%TA.AperFunction,Conductor*%
%ADD43C,0.50800*%
%ADD44C,0.25400*%
%ADD45C,0.76200*%
%TA.AperFunction,ViaPad*%
%ADD46C,3.81000*%
%TA.AperFunction,ComponentPad*%
%ADD47C,10.00000*%
%ADD48C,1.20000*%
%ADD49C,3.81000*%
%ADD50C,2.00000*%
%ADD51C,1.98120*%
%TA.AperFunction,ViaPad*%
%ADD52C,3.20000*%
%ADD53C,0.91440*%
%ADD54C,1.01600*%
%ADD55C,1.27000*%
%ADD56C,0.60960*%
G36*
X12956540Y8110219D02*
Y7670800D01*
X12918440Y7632700D01*
X12255501D01*
X12189460Y7698739D01*
Y8087360D01*
X12245340Y8143240D01*
X12923520D01*
X12956540Y8110219D01*
D02*
G37*
G36*
X12623800Y6494780D02*
Y5786120D01*
X12303760D01*
X12250420Y5839460D01*
X12245340D01*
Y6050280D01*
X12057380Y6238240D01*
X11285220D01*
Y6692900D01*
X12425680D01*
X12623800Y6494780D01*
D02*
G37*
G36*
X11452860Y7462520D02*
X11564620Y7350760D01*
Y6893560D01*
X11452860Y6781800D01*
X11292840D01*
X11221720Y6710680D01*
X11221720Y6212840D01*
X11315700Y6118860D01*
X11574780D01*
X11643360Y6050280D01*
Y5712460D01*
X11567160Y5636260D01*
X11318240D01*
X11221720Y5539740D01*
Y5067300D01*
X11346180Y4942840D01*
X11544300Y4744720D01*
Y4180840D01*
X11371580Y4008120D01*
X10454639D01*
Y5628640D01*
X10548620Y5722620D01*
X10995660Y5722620D01*
X11104880Y5831840D01*
Y5969000D01*
X11041380Y6032500D01*
X10462260D01*
X10182860Y5753099D01*
Y4008120D01*
X8851900D01*
X8732520Y3888740D01*
X8732520Y769620D01*
X8592820Y629920D01*
X7858760D01*
X7721600Y767080D01*
Y3845560D01*
X7620000Y3947160D01*
X6337300D01*
X6230620Y3840480D01*
X6230619Y690879D01*
X6175735Y635995D01*
X5767345D01*
X5717540Y685800D01*
Y4058920D01*
X5918200Y4259580D01*
X6951980D01*
X7040880Y4348480D01*
Y4785360D01*
X7198360Y4942840D01*
X7526020D01*
X7630160Y5046980D01*
Y5582920D01*
X7536180Y5676900D01*
X7190740D01*
X7134860Y5732780D01*
X7134860Y6017260D01*
X7193280Y6075680D01*
X7627620D01*
X7713980Y6162040D01*
Y6705600D01*
X7564120Y6855460D01*
X7345680D01*
X7218680Y6982460D01*
X7218680Y7343140D01*
X7338060Y7462520D01*
X11452860Y7462520D01*
D02*
G37*
G36*
X15176500Y6743700D02*
Y4960620D01*
X14869160Y4653280D01*
X13007339D01*
X12707620Y4953000D01*
Y6675120D01*
X12176760Y7205980D01*
Y7345680D01*
X12275820Y7444740D01*
X14475459D01*
X15176500Y6743700D01*
D02*
G37*
G36*
X6824980Y8125460D02*
Y6962140D01*
X7213600Y6573520D01*
X7414260D01*
X7480300Y6507480D01*
Y6243320D01*
X7414260Y6177280D01*
X7101840D01*
X6939280Y6014720D01*
Y5651500D01*
X7122160Y5468620D01*
X7353300D01*
X7480300Y5341620D01*
Y5153660D01*
X7386320Y5059680D01*
X6944360D01*
X6738620Y4853940D01*
Y4455160D01*
X6731001Y4447541D01*
X4668520Y4447540D01*
Y6085839D01*
X4511039Y6243320D01*
X4124960D01*
X3975100Y6393180D01*
X3975100Y6530340D01*
X4099560Y6654800D01*
X4505961D01*
X4871720Y7020557D01*
X4871720Y8082280D01*
X5163820Y8374380D01*
X6576060D01*
X6824980Y8125460D01*
D02*
G37*
G36*
X4660900Y8247380D02*
Y7249160D01*
X4429760Y7018020D01*
X4193540Y6781800D01*
X3830320D01*
X3708400Y6659880D01*
Y6268720D01*
X3919220Y6057900D01*
X4356100D01*
X4409440Y6004560D01*
X4409440Y5773420D01*
X4328160Y5692140D01*
X3924300D01*
X3888740Y5656580D01*
X3716020Y5483860D01*
Y5092700D01*
X3736340D01*
X3881120Y4947920D01*
X4208780D01*
X4328160Y4828540D01*
X4320540Y4820920D01*
Y4384040D01*
X4312920D01*
X4107180Y4178300D01*
X1816099D01*
X1574800Y4419600D01*
X1061720D01*
X200660Y5280660D01*
X200660Y7450660D01*
X1284400Y8534400D01*
X4373880Y8534400D01*
X4660900Y8247380D01*
D02*
G37*
G36*
X3782060Y3136900D02*
X3804920Y3114040D01*
X3804920Y2951480D01*
X3769360Y2915920D01*
X3172460D01*
X3157220Y2931160D01*
Y2961640D01*
X3175000Y2979420D01*
X3342640Y2979420D01*
X3365500Y3002280D01*
Y3108960D01*
X3393440Y3136900D01*
X3782060Y3136900D01*
D02*
G37*
G36*
X14960600Y4114800D02*
Y1828800D01*
X14643100Y1511300D01*
X13055600D01*
X12611100Y1955799D01*
Y1955800D01*
X11798301D01*
X11772900Y1981199D01*
X11772900Y2006600D01*
X11798300Y2032000D01*
X12090400Y2032000D01*
X12115800Y2057400D01*
X12115800Y2197100D01*
X12141200Y2222500D01*
X12611100D01*
X12611100Y3860800D01*
X13119099Y4368800D01*
X14706599D01*
X14960600Y4114800D01*
D02*
G37*
G36*
X1752600Y3987800D02*
X2387600D01*
X2578100Y3797300D01*
Y2921000D01*
X2616200Y2882900D01*
X3797300D01*
X3860800Y2946400D01*
X4013200Y2946400D01*
X4064000Y2895600D01*
Y1676400D01*
X3797300Y1409700D01*
X292100D01*
Y4114800D01*
X419100Y4241800D01*
X1498600D01*
X1752600Y3987800D01*
D02*
G37*
G36*
X9410700Y3822700D02*
Y1701800D01*
X9842500D01*
X9918700Y1778000D01*
X10083799Y1778000D01*
X10121900Y1739900D01*
X10160000Y1701800D01*
X10591800D01*
Y1511300D01*
X9410700D01*
Y774700D01*
X9283700Y647700D01*
X8877300D01*
X8851900Y673100D01*
Y3898900D01*
X8902700Y3949700D01*
X9283700D01*
X9410700Y3822700D01*
D02*
G37*
G36*
X7632700D02*
Y647700D01*
X7531100Y546100D01*
X6438508D01*
X6312881Y672704D01*
X6337300Y3822700D01*
X6388100Y3873500D01*
X7581900D01*
X7632700Y3822700D01*
D02*
G37*
D10*
X14132561Y7726680D02*
D03*
X2725420Y970280D02*
D03*
X10754360Y3324860D02*
D03*
D11*
X11945620Y5297166D02*
D03*
Y5126994D02*
D03*
D12*
X13373100Y4930800D02*
D03*
Y4060800D02*
D03*
D13*
X5484100Y2044700D02*
D03*
X3926600D02*
D03*
X4531600D02*
D03*
X4879100D02*
D03*
D14*
X6595110Y990600D02*
D03*
X9058910D02*
D03*
X7343140D02*
D03*
X6595110Y1778000D02*
D03*
X9058910D02*
D03*
X7343140D02*
D03*
X6595110Y2616200D02*
D03*
X9058910D02*
D03*
X7343140D02*
D03*
X6595110Y3467100D02*
D03*
X9058910D02*
D03*
X7343140D02*
D03*
X8543290D02*
D03*
X6079490D02*
D03*
X7858760D02*
D03*
X8543290Y2616200D02*
D03*
Y1778000D02*
D03*
Y990600D02*
D03*
X7858760Y2616200D02*
D03*
X6079490D02*
D03*
Y1778000D02*
D03*
X7858760D02*
D03*
X6079490Y990600D02*
D03*
X7858760D02*
D03*
D15*
X3945700Y2871720D02*
D03*
Y3126720D02*
D03*
D16*
X3454400Y2858220D02*
D03*
X3721100D02*
D03*
X3594100D02*
D03*
X3292410Y3406720D02*
D03*
X3721100Y2948220D02*
D03*
X3594100D02*
D03*
X3292410Y3316720D02*
D03*
X3454400Y2948220D02*
D03*
X3894900Y3259020D02*
D03*
Y3349020D02*
D03*
D17*
X3146522Y3601720D02*
D03*
X3406678D02*
D03*
D18*
X9690100Y1596670D02*
D03*
X10020300Y1749070D02*
D03*
X12407900Y2142770D02*
D03*
X10020300Y1984730D02*
D03*
X12357100Y4880330D02*
D03*
Y4644670D02*
D03*
X12407900Y2378430D02*
D03*
X9690100Y1832330D02*
D03*
X3247200Y2944890D02*
D03*
Y3180550D02*
D03*
D19*
X12106586Y1435100D02*
D03*
X12157386Y2882900D02*
D03*
X11896414Y1435100D02*
D03*
X11947214Y2882900D02*
D03*
D20*
X10502900Y1655100D02*
D03*
Y1850100D02*
D03*
D21*
X11112500Y1663494D02*
D03*
X12120880Y4157774D02*
D03*
X11112500Y1816306D02*
D03*
X12120880Y4310586D02*
D03*
D22*
X11884600Y1993900D02*
D03*
X11404600Y2628900D02*
D03*
X11884600Y1866900D02*
D03*
Y1739900D02*
D03*
Y2120900D02*
D03*
Y2247900D02*
D03*
Y2374900D02*
D03*
Y2501900D02*
D03*
Y2628900D02*
D03*
X11404600Y1739900D02*
D03*
Y1866900D02*
D03*
Y1993900D02*
D03*
Y2120900D02*
D03*
Y2247900D02*
D03*
Y2374900D02*
D03*
Y2501900D02*
D03*
D23*
X12192000Y2162700D02*
D03*
Y2307700D02*
D03*
D24*
X12678130Y2514600D02*
D03*
X12442470D02*
D03*
X12112270D02*
D03*
X12347930D02*
D03*
D25*
X13385800Y8037420D02*
D03*
Y7827420D02*
D03*
D26*
X1143000Y4114500D02*
D03*
Y4521500D02*
D03*
D27*
X11512714Y2882900D02*
D03*
X11080586Y1435100D02*
D03*
X10890414D02*
D03*
X11949594Y4884420D02*
D03*
X12139766D02*
D03*
X11702886Y2882900D02*
D03*
D28*
X12752066Y5867400D02*
D03*
X12581894D02*
D03*
D29*
X4363600Y1231900D02*
D03*
X4455100Y1417241D02*
D03*
X4546600Y1231900D02*
D03*
X4823400D02*
D03*
X5006400D02*
D03*
X4914900Y1417241D02*
D03*
D30*
X12412980Y7315560D02*
D03*
X12793980Y7320460D02*
D03*
Y7787460D02*
D03*
X12412980Y7782560D02*
D03*
D31*
X13362939Y7327800D02*
D03*
Y7632800D02*
D03*
D32*
X4300940Y4483100D02*
D03*
X10782300Y2120900D02*
D03*
X10872300D02*
D03*
X3726900Y3500120D02*
D03*
X3816900D02*
D03*
X4693200Y4483100D02*
D03*
X4390940D02*
D03*
X4603200D02*
D03*
D33*
X10176800Y1906500D02*
D03*
X10371800D02*
D03*
Y1841500D02*
D03*
Y1776500D02*
D03*
X10176800D02*
D03*
Y1841500D02*
D03*
D34*
X9845500Y1968500D02*
D03*
X9715500D02*
D03*
X9780500D02*
D03*
X9845500Y2163500D02*
D03*
X9780500D02*
D03*
X9715500D02*
D03*
D35*
X10007600Y2178100D02*
D03*
X10502900Y1987600D02*
D03*
X10007600Y2343100D02*
D03*
X10502900Y2152600D02*
D03*
X9537700Y2343100D02*
D03*
Y2178100D02*
D03*
D36*
X5464771Y1340177D02*
D03*
X5279429Y1431677D02*
D03*
Y1248677D02*
D03*
D37*
X11943080Y4668820D02*
D03*
Y4528820D02*
D03*
X12123080Y4598820D02*
D03*
D38*
X3594100Y3600120D02*
D03*
Y3500120D02*
D03*
D39*
X3721100Y3312620D02*
D03*
Y3247620D02*
D03*
Y3182620D02*
D03*
Y3117620D02*
D03*
X3459100D02*
D03*
Y3182620D02*
D03*
Y3247620D02*
D03*
Y3312620D02*
D03*
D40*
X4352100Y3183520D02*
D03*
Y3043520D02*
D03*
D41*
X4174300Y3223520D02*
D03*
Y3003520D02*
D03*
D42*
X4775200Y3228820D02*
D03*
Y2653820D02*
D03*
D43*
X12646660Y2882900D02*
X12659360Y2895600D01*
X12157386Y2882900D02*
X12646660D01*
X11304004Y1475896D02*
X11335864D01*
X11116407Y1663494D02*
X11304004Y1475896D01*
X11335864D02*
X11343640Y1468120D01*
X11112500Y1663494D02*
X11116407D01*
X15151100Y1257300D02*
Y4699000D01*
X14053819Y160020D02*
X15151100Y1257300D01*
X15009221Y4840879D02*
X15151100Y4699000D01*
X5484100Y2044700D02*
X5583642D01*
X5613400Y622300D02*
X5651500Y584200D01*
X6769100D01*
X6870700Y685800D01*
X5613400Y622300D02*
Y2014942D01*
X5583642Y2044700D02*
X5613400Y2014942D01*
X2324100Y3543300D02*
X2337846D01*
X2396266Y3601720D02*
X3146522D01*
X2337846Y3543300D02*
X2396266Y3601720D01*
X12106586Y1435100D02*
X12344400D01*
X12928600Y2019300D01*
X12001706Y3911806D02*
Y4038600D01*
X11988800Y3898900D02*
X12001706Y3911806D01*
Y4038600D02*
X12073470Y4110364D01*
Y4114270D01*
X12116973Y4157774D01*
X12120880D01*
X13085420Y8051800D02*
X13092610Y8044610D01*
X13378610D01*
X13385800Y8037420D02*
X14166960D01*
X13378610Y8044610D02*
X13385800Y8037420D01*
X14216081Y7988300D02*
X14236700D01*
X14166960Y8037420D02*
X14216081Y7988300D01*
X14988179Y4840879D02*
X15009221D01*
X14960600Y4813300D02*
X14988179Y4840879D01*
X4363600Y435256D02*
Y1231900D01*
Y435256D02*
X4638836Y160020D01*
X14053819D01*
X3924300Y4572000D02*
X4201880Y4294420D01*
X3834948Y4572000D02*
X3924300D01*
X3699926Y4436977D02*
X3834948Y4572000D01*
X3359865Y4436977D02*
X3699926D01*
X3292410Y4369522D02*
X3359865Y4436977D01*
X3292410Y3406720D02*
Y4369522D01*
X10782300Y1543214D02*
Y2120900D01*
X10865489Y1480111D02*
X10890414Y1455186D01*
X10782300Y1543214D02*
X10845403Y1480111D01*
X10865489D01*
X10890414Y1435100D02*
Y1455186D01*
X10670750Y2120900D02*
X10782300D01*
X10007600Y2343100D02*
X10287400D01*
X10477900Y2152600D01*
X9537700Y2343100D02*
X10007600D01*
X10502900Y2152600D02*
X10510450Y2145050D01*
X10646600D01*
X10477900Y2152600D02*
X10502900D01*
X10646600Y2145050D02*
X10670750Y2120900D01*
X9504680Y4112260D02*
X9522460Y4094480D01*
Y4076700D02*
X9537700Y4061460D01*
Y2343100D02*
Y4061460D01*
X9522460Y4076700D02*
Y4094480D01*
X11159910Y1859810D02*
Y1914310D01*
X11112500Y1816306D02*
X11116407D01*
X11159910Y1859810D01*
Y1914310D02*
X11239500Y1993900D01*
X11404600D01*
X11065090Y1859810D02*
Y1926410D01*
X10872300Y2119200D02*
X11065090Y1926410D01*
X4693200Y4481400D02*
Y4483100D01*
Y4481400D02*
X4775200Y4399400D01*
Y3228820D02*
Y4399400D01*
X4191000Y6372860D02*
Y6404160D01*
X4390940Y4483100D02*
X4603200D01*
D44*
X11080586Y1419385D02*
X11118211Y1381760D01*
X11848789D01*
X11080586Y1419385D02*
Y1435100D01*
X11896414Y1429385D02*
Y1435100D01*
X11848789Y1381760D02*
X11896414Y1429385D01*
X11945620Y5297166D02*
X11973245Y5269540D01*
X11928626Y5314160D02*
X11945620Y5297166D01*
X12156440Y5265420D02*
X12324080D01*
X12152320Y5269540D02*
X12156440Y5265420D01*
X11973245Y5269540D02*
X12152320D01*
X14008099Y241300D02*
X15028825Y1262026D01*
Y4495800D01*
X14389101D02*
X15028825D01*
X10347960Y3698240D02*
Y5646420D01*
Y3698240D02*
X10350500Y3695700D01*
X10347960Y5646420D02*
X10492740Y5791200D01*
X10711180D01*
X10812780Y5892800D01*
X10972800D01*
X11519363Y2603500D02*
X11638280D01*
X11493963Y2628900D02*
X11519363Y2603500D01*
X11455917Y2628900D02*
X11471900Y2644883D01*
X11404600Y2628900D02*
X11455917D01*
X11404600D02*
X11493963D01*
X11471900Y2644883D02*
Y2882900D01*
X12752066Y4359906D02*
Y5867400D01*
X11475720Y2919894D02*
X11512714Y2882900D01*
X11475720Y2919894D02*
Y3083560D01*
X12752066Y4359906D01*
X10264140Y2865120D02*
Y5704840D01*
X9867900Y2468880D02*
X10264140Y2865120D01*
X5181599Y241301D02*
X14008099Y241300D01*
X5464771Y504229D02*
Y1340177D01*
X5600700Y368300D02*
X10706100D01*
X10992160Y654360D01*
X10264140Y5704840D02*
X10452100Y5892800D01*
X10473100Y1957800D02*
X10502900Y1987600D01*
X10435600Y1957800D02*
X10473100D01*
X10384300Y1906500D02*
X10435600Y1957800D01*
X10371800Y1906500D02*
X10384300D01*
X10172000Y1911300D02*
X10176800Y1906500D01*
X10138460Y1911300D02*
X10172000D01*
X10065030Y1984730D02*
X10138460Y1911300D01*
X10020300Y1984730D02*
X10065030D01*
X9960000Y1841500D02*
X10176800D01*
X9845500Y1956000D02*
X9960000Y1841500D01*
X9845500Y1956000D02*
Y1968500D01*
X9982600Y2178100D02*
X10007600D01*
X9952800Y2148300D02*
X9982600Y2178100D01*
X9952800Y2088300D02*
Y2148300D01*
X9845500Y1981000D02*
X9952800Y2088300D01*
X10502900Y1850100D02*
Y1987600D01*
X11654300Y1866900D02*
X11884600D01*
X10615197Y1805940D02*
X10624820D01*
X10537700Y1815300D02*
X10605838D01*
X10502900Y1850100D02*
X10537700Y1815300D01*
X10605838D02*
X10615197Y1805940D01*
X11884600Y1446914D02*
X11896414Y1435100D01*
X11884600Y1446914D02*
Y1739900D01*
X11404600Y1993900D02*
X11484600D01*
X10992160Y654360D02*
Y1738749D01*
X11023908Y1770497D01*
X11062785D01*
X11108593Y1816306D01*
X5464771Y504229D02*
X5600700Y368300D01*
X11065090Y1859810D02*
X11108593Y1816306D01*
X10872300Y2119200D02*
Y2120900D01*
X5006400Y416500D02*
Y1231900D01*
Y416500D02*
X5181599Y241301D01*
X12357100Y4495800D02*
Y4644670D01*
X4685000Y1231900D02*
Y2388840D01*
Y1231900D02*
X4823400D01*
X4546600D02*
X4685000D01*
X11945620Y4671360D02*
Y5126994D01*
X11828780Y5010154D02*
X11945620Y5126994D01*
X11127740Y2413000D02*
Y3187700D01*
X11397980Y2254520D02*
X11404600Y2247900D01*
X11286220Y2254520D02*
X11397980D01*
X11127740Y2413000D02*
X11286220Y2254520D01*
X11127740Y3187700D02*
X11828780Y3888740D01*
Y5010154D01*
X11256500Y2570000D02*
Y2953240D01*
X11324600Y2501900D02*
X11404600D01*
X11256500Y2570000D02*
X11324600Y2501900D01*
X11256500Y2953240D02*
X12581894Y4278634D01*
X11943080Y4668820D02*
X11945620Y4671360D01*
X12581894Y4278634D02*
Y5867400D01*
X12139766Y4598820D02*
Y4884420D01*
X11692890Y2124710D02*
X11880790D01*
X11689080Y2128520D02*
X11692890Y2124710D01*
X11880790D02*
X11884600Y2120900D01*
X13362939Y7632800D02*
X13385800Y7655660D01*
Y7827420D01*
X12120880Y4310586D02*
X12139766Y4329472D01*
Y4598820D01*
Y4884420D02*
X12353570D01*
X11468100Y5314160D02*
X11928626D01*
X11884600Y2628900D02*
X11931231D01*
X11947214Y2644883D01*
Y2882900D01*
X11702886D02*
X11947214D01*
X12407900Y2378430D02*
X12427510D01*
X12442470Y2393390D01*
Y2514600D01*
X12347930D02*
X12442470D01*
X12187000Y2307700D02*
X12192000D01*
X12112270Y2382430D02*
X12187000Y2307700D01*
X12112270Y2382430D02*
Y2514600D01*
X12099570Y2501900D02*
X12112270Y2514600D01*
X11884600Y2501900D02*
X12099570D01*
X11484600Y1993900D02*
X11552700Y1925800D01*
Y1808000D02*
Y1925800D01*
X11484600Y1739900D02*
X11552700Y1808000D01*
X11404600Y1739900D02*
X11484600D01*
X10452100Y5892800D02*
X10572800D01*
X9850300Y2248754D02*
X9859367Y2257822D01*
X9850300Y2168300D02*
Y2248754D01*
X9845500Y2163500D02*
X9850300Y2168300D01*
X9690100Y1832330D02*
X9700540D01*
X9715500Y1847290D01*
Y1968500D01*
X9537700Y2178100D02*
X9552300Y2163500D01*
X9715500D01*
X9780500D01*
Y1968500D02*
Y2163500D01*
X4929336Y1431677D02*
X5279429D01*
X4914900Y1417241D02*
X4929336Y1431677D01*
X4775200Y2479040D02*
Y2653820D01*
X4685000Y2388840D02*
X4775200Y2479040D01*
X4879100Y1602980D02*
Y2044700D01*
Y1602980D02*
X4914900Y1567180D01*
Y1417241D02*
Y1567180D01*
X4531600Y2044700D02*
X4533900Y2042400D01*
Y1633220D02*
Y2042400D01*
X4455100Y1554420D02*
X4533900Y1633220D01*
X4455100Y1417241D02*
Y1554420D01*
X3949700Y3635420D02*
Y3937000D01*
X3816900Y3502620D02*
X3949700Y3635420D01*
X3816900Y3500120D02*
Y3502620D01*
X4729900Y3183520D02*
X4775200Y3228820D01*
X4352100Y3183520D02*
X4729900D01*
X4347120D02*
X4352100D01*
X4307120Y3223520D02*
X4347120Y3183520D01*
X4174300Y3223520D02*
X4307120D01*
X4048800Y3349020D02*
X4174300Y3223520D01*
X3894900Y3349020D02*
X4048800D01*
X3882600Y3336720D02*
X3894900Y3349020D01*
X3869879Y3336720D02*
X3882600D01*
X3829300Y3296140D02*
X3869879Y3336720D01*
X3829300Y3262499D02*
Y3296140D01*
X3814421Y3247620D02*
X3829300Y3262499D01*
X3721100Y3247620D02*
X3814421D01*
X3934700Y3126720D02*
X3945700D01*
X3894900Y3166520D02*
X3934700Y3126720D01*
X3894900Y3166520D02*
Y3259020D01*
X3908200Y3126720D02*
X3945700D01*
X3852300Y3182620D02*
X3908200Y3126720D01*
X3721100Y3182620D02*
X3852300D01*
X3721100Y2948220D02*
X3723600D01*
X3778900Y3003520D01*
X4174300D01*
X4249360D01*
X4276000Y3030160D01*
X4338740D01*
X4352100Y3043520D01*
X3454400Y3112920D02*
X3459100Y3117620D01*
X3247200Y2944890D02*
X3248865Y2946555D01*
X3247200Y3180550D02*
X3248235Y3181585D01*
X3458065D01*
X3459100Y3182620D01*
Y3247620D02*
Y3312620D01*
X3457050Y3314670D02*
X3459100Y3312620D01*
X3294460Y3314670D02*
X3457050D01*
X3292410Y3316720D02*
X3294460Y3314670D01*
X3406678Y3601720D02*
X3408278Y3600120D01*
X3594100D01*
Y3500120D02*
X3726900D01*
Y3318420D02*
Y3500120D01*
X3721100Y3312620D02*
X3726900Y3318420D01*
D45*
X12793980Y7787460D02*
X12796520Y7790000D01*
X12791530Y7785010D02*
X12793980Y7787460D01*
X12412980Y7782560D02*
X12415430Y7785010D01*
D46*
X12298680Y1739900D02*
D03*
X9514840Y7246620D02*
D03*
X5633720Y4724400D02*
D03*
X12324080Y5265420D02*
D03*
X3975100Y3924300D02*
D03*
X14325600Y1892300D02*
D03*
X1155700Y1663700D02*
D03*
X14363699Y6946900D02*
D03*
X1143000Y7099300D02*
D03*
D47*
Y2794000D02*
D03*
X14350999Y2959100D02*
D03*
Y5842000D02*
D03*
X1143000D02*
D03*
D48*
X10972800Y5892800D02*
D03*
X13085420Y8051800D02*
D03*
X12885420Y8251800D02*
D03*
X13085420D02*
D03*
X12885420Y8051800D02*
D03*
X10572800Y5892800D02*
D03*
D49*
X3924300Y4572000D02*
D03*
Y7124700D02*
D03*
X11239500Y4572000D02*
D03*
Y7124700D02*
D03*
X7658100D02*
D03*
Y4572000D02*
D03*
D50*
X4191000Y5859160D02*
D03*
Y5314160D02*
D03*
Y6404160D02*
D03*
X11468100Y5314160D02*
D03*
Y6404160D02*
D03*
Y5859160D02*
D03*
D51*
X7327900Y5300980D02*
D03*
Y6388100D02*
D03*
Y5844540D02*
D03*
D52*
X500000Y500000D02*
D03*
Y8150000D02*
D03*
X14800000Y500000D02*
D03*
Y8150000D02*
D03*
D53*
X11343640Y1468120D02*
D03*
X12606020Y7330440D02*
D03*
X12331700Y7200900D02*
D03*
X12484100D02*
D03*
X12636500D02*
D03*
X12788900D02*
D03*
X12738100Y8064500D02*
D03*
X12585700Y8013700D02*
D03*
X12387227Y8014442D02*
D03*
X12885773Y7911358D02*
D03*
X12682573D02*
D03*
X12479373D02*
D03*
X12276173D02*
D03*
X12600940Y7769860D02*
D03*
D54*
X14198599Y4178300D02*
D03*
X14706599D02*
D03*
X13436600Y1765300D02*
D03*
X14706599Y3670300D02*
D03*
X14198599Y3924300D02*
D03*
X14452600Y4051300D02*
D03*
Y3797300D02*
D03*
X14706599Y3924300D02*
D03*
X3416300Y1765300D02*
D03*
X3162300D02*
D03*
X3289300Y2019300D02*
D03*
X3416300Y2273300D02*
D03*
X3162300D02*
D03*
X2578100Y1511300D02*
D03*
X3289300Y2527300D02*
D03*
X2933700Y2781300D02*
D03*
X3060700Y1511300D02*
D03*
X2806700D02*
D03*
X2933700Y1765300D02*
D03*
X3060700Y2019300D02*
D03*
X2806700D02*
D03*
Y2527300D02*
D03*
X2933700Y2273300D02*
D03*
X3060700Y2527300D02*
D03*
X2705100Y1765300D02*
D03*
X2451100D02*
D03*
X2578100Y2019300D02*
D03*
X2705100Y2273300D02*
D03*
X2451100D02*
D03*
Y2781300D02*
D03*
X2578100Y2527300D02*
D03*
X2705100Y2781300D02*
D03*
X1714500Y2273300D02*
D03*
X546100Y3543300D02*
D03*
X1612900Y2019300D02*
D03*
X495300Y2120900D02*
D03*
Y1866900D02*
D03*
Y1612900D02*
D03*
Y2374900D02*
D03*
X1536700Y3543300D02*
D03*
X1282700D02*
D03*
X1816100Y1511300D02*
D03*
X2324100D02*
D03*
X2070100D02*
D03*
X1562100D02*
D03*
X1689100Y1765300D02*
D03*
X2197100D02*
D03*
X1943100D02*
D03*
X774700Y3543300D02*
D03*
X1028700D02*
D03*
X1409700Y3797300D02*
D03*
X647700D02*
D03*
X1155700D02*
D03*
X901700D02*
D03*
X2324100Y2019300D02*
D03*
X1816100D02*
D03*
X1663700Y3797300D02*
D03*
X2070100Y2019300D02*
D03*
X6870700Y1066800D02*
D03*
Y1257300D02*
D03*
Y685800D02*
D03*
Y876300D02*
D03*
X7048500Y1155700D02*
D03*
Y774700D02*
D03*
Y965200D02*
D03*
X6870700Y1447800D02*
D03*
Y2019300D02*
D03*
Y1638300D02*
D03*
Y1828800D02*
D03*
X7048500Y1536700D02*
D03*
Y1346200D02*
D03*
X8940800Y1384300D02*
D03*
X7048500Y1727200D02*
D03*
Y1917700D02*
D03*
X1816100Y2527300D02*
D03*
X1943100Y2273300D02*
D03*
X2070100Y2527300D02*
D03*
X1943100Y2781300D02*
D03*
X2197100D02*
D03*
X2070100Y3035300D02*
D03*
X2197100Y2273300D02*
D03*
X2324100Y2527300D02*
D03*
Y3035300D02*
D03*
X1816100D02*
D03*
X1943100Y3289300D02*
D03*
X1816100Y3543300D02*
D03*
X2070100D02*
D03*
X1943100Y3797300D02*
D03*
X2197100Y3289300D02*
D03*
X2324100Y3543300D02*
D03*
X2197100Y3797300D02*
D03*
X6870700Y2209800D02*
D03*
Y2400300D02*
D03*
Y2781300D02*
D03*
Y2590800D02*
D03*
X7048500Y2870200D02*
D03*
Y2298700D02*
D03*
Y2108200D02*
D03*
X8940800Y2197100D02*
D03*
X7048500Y2489200D02*
D03*
Y2679700D02*
D03*
X6870700Y2971800D02*
D03*
Y3162300D02*
D03*
Y3543300D02*
D03*
Y3733800D02*
D03*
Y3352800D02*
D03*
X7048500Y3632200D02*
D03*
Y3060700D02*
D03*
X9131300Y3035300D02*
D03*
X8940800D02*
D03*
X7048500Y3251200D02*
D03*
Y3441700D02*
D03*
X9283700Y1282700D02*
D03*
Y901700D02*
D03*
Y1092200D02*
D03*
X9131300Y1384300D02*
D03*
X9283700Y1473200D02*
D03*
X9131300Y2197100D02*
D03*
X9283700Y1854200D02*
D03*
Y2044700D02*
D03*
Y2616200D02*
D03*
Y2806700D02*
D03*
Y2235200D02*
D03*
Y2425700D02*
D03*
Y1663700D02*
D03*
X12928600Y2019300D02*
D03*
X13182600Y1892300D02*
D03*
X14198599Y3670300D02*
D03*
X13690601Y1892300D02*
D03*
X13436600Y2019300D02*
D03*
X13182600Y2146300D02*
D03*
X13944600Y3543300D02*
D03*
X13690601Y2146300D02*
D03*
X12928600Y2273300D02*
D03*
X13182600Y2400300D02*
D03*
X12928600Y2781300D02*
D03*
Y2527300D02*
D03*
X13182600Y2654300D02*
D03*
X13436600Y2273300D02*
D03*
X13944600Y3797300D02*
D03*
X13690601Y2400300D02*
D03*
X13436600Y2527300D02*
D03*
Y2781300D02*
D03*
X13690601Y2654300D02*
D03*
X9283700Y3378200D02*
D03*
Y2997200D02*
D03*
Y3187700D02*
D03*
Y3759200D02*
D03*
Y3568700D02*
D03*
X11988800Y3898900D02*
D03*
X12928600Y3035300D02*
D03*
X13182600Y2908300D02*
D03*
Y3162300D02*
D03*
X12928600Y3543300D02*
D03*
Y3289300D02*
D03*
X13182600Y3416300D02*
D03*
X13436600Y3035300D02*
D03*
X13690601Y2908300D02*
D03*
Y3162300D02*
D03*
X13436600Y3289300D02*
D03*
Y3543300D02*
D03*
X13690601Y3416300D02*
D03*
Y3670300D02*
D03*
X13182600D02*
D03*
X12992101Y6489700D02*
D03*
X13119099Y6235700D02*
D03*
X13373100D02*
D03*
X13627100D02*
D03*
X14135100Y6718300D02*
D03*
X12992101Y5981700D02*
D03*
X13500101D02*
D03*
X13246100D02*
D03*
X14135100Y7251700D02*
D03*
X13627100D02*
D03*
X13881100D02*
D03*
X13754100Y6997700D02*
D03*
X14008099D02*
D03*
X13246100Y6489700D02*
D03*
X13500101D02*
D03*
X13754100D02*
D03*
X14820900Y5067300D02*
D03*
X13881100Y6743700D02*
D03*
X13119099Y7251700D02*
D03*
X13423900Y7200900D02*
D03*
X13373100Y5765800D02*
D03*
X13119099D02*
D03*
X13627100D02*
D03*
X13246100Y5549900D02*
D03*
X12992101D02*
D03*
X13500101D02*
D03*
X13627100Y5308600D02*
D03*
X13373100D02*
D03*
X13881100Y5067300D02*
D03*
Y5321300D02*
D03*
X14109700Y4940300D02*
D03*
Y5194300D02*
D03*
X14338300Y4813300D02*
D03*
Y5067300D02*
D03*
X14617700Y4914900D02*
D03*
Y5168900D02*
D03*
X12992101Y6997700D02*
D03*
X13246100D02*
D03*
X13500101D02*
D03*
X13119099Y6743700D02*
D03*
X13627100D02*
D03*
X13373100D02*
D03*
X495300Y5549900D02*
D03*
Y5803900D02*
D03*
X515834Y6068879D02*
D03*
X495300Y6311900D02*
D03*
X292100Y6184900D02*
D03*
Y5930900D02*
D03*
Y5676900D02*
D03*
X8140700Y3975100D02*
D03*
Y2451100D02*
D03*
Y2260600D02*
D03*
Y2070100D02*
D03*
Y1879600D02*
D03*
Y1308100D02*
D03*
Y1498600D02*
D03*
Y1689100D02*
D03*
Y1117600D02*
D03*
X10007600Y6019800D02*
D03*
X9880600Y4749800D02*
D03*
X12484100Y6083300D02*
D03*
X1562100Y5321300D02*
D03*
X1435100Y5067300D02*
D03*
X1308100Y4813300D02*
D03*
X1435100Y4559300D02*
D03*
X1562100Y4813300D02*
D03*
X1689100Y4559300D02*
D03*
X673100Y6591300D02*
D03*
X419100D02*
D03*
X292100Y6845300D02*
D03*
X546100D02*
D03*
X1689100Y7099300D02*
D03*
X3594100Y7861300D02*
D03*
Y8369300D02*
D03*
X2070100D02*
D03*
Y7861300D02*
D03*
X1689100Y7607300D02*
D03*
X1943100Y4559300D02*
D03*
X2197100D02*
D03*
X2451100D02*
D03*
X2705100D02*
D03*
X2959100D02*
D03*
X1816100Y4305300D02*
D03*
X2324100D02*
D03*
X2070100D02*
D03*
X2578100D02*
D03*
X2832100D02*
D03*
X3086100D02*
D03*
X1816100Y5321300D02*
D03*
X2070100D02*
D03*
X2324100D02*
D03*
X2578100D02*
D03*
X2832100D02*
D03*
X1816100Y4813300D02*
D03*
X2070100D02*
D03*
X2324100D02*
D03*
X2578100D02*
D03*
X2832100D02*
D03*
X1689100Y5067300D02*
D03*
X2197100D02*
D03*
X1943100D02*
D03*
X2451100D02*
D03*
X2705100D02*
D03*
X2959100D02*
D03*
X1943100Y6083300D02*
D03*
X2197100D02*
D03*
X2451100D02*
D03*
X2705100D02*
D03*
X2959100D02*
D03*
X1943100Y5575300D02*
D03*
X2197100D02*
D03*
X2451100D02*
D03*
X2705100D02*
D03*
X2959100D02*
D03*
X1816100Y5829300D02*
D03*
X2324100D02*
D03*
X2070100D02*
D03*
X2578100D02*
D03*
X2832100D02*
D03*
X3086100D02*
D03*
X1816100Y6845300D02*
D03*
X2070100D02*
D03*
X2324100D02*
D03*
X2578100D02*
D03*
X2832100D02*
D03*
X1816100Y6337300D02*
D03*
X2070100D02*
D03*
X2324100D02*
D03*
X2578100D02*
D03*
X2832100D02*
D03*
X1689100Y6591300D02*
D03*
X2197100D02*
D03*
X1943100D02*
D03*
X2451100D02*
D03*
X2705100D02*
D03*
X2959100D02*
D03*
X3848100Y8369300D02*
D03*
X4102100D02*
D03*
X4356100D02*
D03*
X3848100Y7861300D02*
D03*
X4102100D02*
D03*
X4356100D02*
D03*
X3721100Y8115300D02*
D03*
X4229100D02*
D03*
X3975100D02*
D03*
X4483100D02*
D03*
X2324100Y8369300D02*
D03*
X2578100D02*
D03*
X2832100D02*
D03*
X3086100D02*
D03*
X3340100D02*
D03*
X2324100Y7861300D02*
D03*
X2578100D02*
D03*
X2832100D02*
D03*
X3086100D02*
D03*
X3340100D02*
D03*
X2197100Y8115300D02*
D03*
X2705100D02*
D03*
X2451100D02*
D03*
X2959100D02*
D03*
X3213100D02*
D03*
X3467100D02*
D03*
X1943100Y7607300D02*
D03*
X2197100D02*
D03*
X2451100D02*
D03*
X2705100D02*
D03*
X2959100D02*
D03*
X1943100Y7099300D02*
D03*
X2197100D02*
D03*
X2451100D02*
D03*
X2705100D02*
D03*
X2959100D02*
D03*
X1816100Y7353300D02*
D03*
X2324100D02*
D03*
X2070100D02*
D03*
X2578100D02*
D03*
X2832100D02*
D03*
X3086100D02*
D03*
X450000Y7550000D02*
D03*
X673100Y7607300D02*
D03*
X927100D02*
D03*
X1181100D02*
D03*
X1435100D02*
D03*
X419100Y7099300D02*
D03*
X673100D02*
D03*
X1435100D02*
D03*
X292100Y7353300D02*
D03*
X800100D02*
D03*
X546100D02*
D03*
X1054100D02*
D03*
X1308100D02*
D03*
X1562100D02*
D03*
X1943100Y8115300D02*
D03*
X1689100D02*
D03*
X1435100D02*
D03*
X950000Y8100000D02*
D03*
X1181100Y8115300D02*
D03*
X1816100Y7861300D02*
D03*
X1562100D02*
D03*
X1308100D02*
D03*
X1054100D02*
D03*
X800100D02*
D03*
X1816100Y8369300D02*
D03*
X1562100D02*
D03*
X1308100D02*
D03*
X11976100Y6337300D02*
D03*
X11722100D02*
D03*
X12484100D02*
D03*
X12357100Y5956300D02*
D03*
X12230100Y6337300D02*
D03*
X12357100Y6210300D02*
D03*
X5816600Y749300D02*
D03*
X10261600Y7035800D02*
D03*
X10134600Y7289800D02*
D03*
X10138075Y6805277D02*
D03*
X10261600Y6527800D02*
D03*
X10007600D02*
D03*
X9880600Y7289800D02*
D03*
X10007600Y7035800D02*
D03*
X9753600D02*
D03*
X9880600Y6781800D02*
D03*
X9753600Y6527800D02*
D03*
X9626600Y6781800D02*
D03*
X10134600Y6273800D02*
D03*
X9880600D02*
D03*
X9753600Y6019800D02*
D03*
X9880600Y5765800D02*
D03*
X10007600Y5511800D02*
D03*
X9626600Y5765800D02*
D03*
X9245600Y7035800D02*
D03*
X9372600Y6781800D02*
D03*
X9245600Y6527800D02*
D03*
X9118600Y7289800D02*
D03*
X8991600Y7035800D02*
D03*
X8864600Y7289800D02*
D03*
X9118600Y6781800D02*
D03*
X8991600Y6527800D02*
D03*
X8864600Y6781800D02*
D03*
X9499600Y6527800D02*
D03*
X9626600Y6273800D02*
D03*
X9372600D02*
D03*
X9499600Y6019800D02*
D03*
X9372600Y5765800D02*
D03*
X9245600Y5511800D02*
D03*
X9118600Y6273800D02*
D03*
X9245600Y6019800D02*
D03*
X8991600D02*
D03*
X9118600Y5765800D02*
D03*
X8991600Y5511800D02*
D03*
X8864600Y5765800D02*
D03*
X10007600Y4495800D02*
D03*
Y5003800D02*
D03*
X9880600Y5257800D02*
D03*
X9753600Y5003800D02*
D03*
Y5511800D02*
D03*
X9880600Y4241800D02*
D03*
X9499600Y5511800D02*
D03*
X9626600Y5257800D02*
D03*
X9372600D02*
D03*
X9499600Y5003800D02*
D03*
X9626600Y4749800D02*
D03*
X9372600D02*
D03*
X9118600Y5257800D02*
D03*
X9245600Y5003800D02*
D03*
X8991600D02*
D03*
X9118600Y4749800D02*
D03*
X8991600Y4495800D02*
D03*
X8864600Y4749800D02*
D03*
X9753600Y4495800D02*
D03*
X9626600Y4241800D02*
D03*
X9245600Y4495800D02*
D03*
X9499600D02*
D03*
X9118600Y4241800D02*
D03*
X9372600D02*
D03*
X8737600Y7035800D02*
D03*
Y6527800D02*
D03*
X8610600Y6273800D02*
D03*
X8864600D02*
D03*
X8737600Y6019800D02*
D03*
X8610600Y5765800D02*
D03*
Y7289800D02*
D03*
Y6781800D02*
D03*
X8483600Y7035800D02*
D03*
Y6019800D02*
D03*
Y5511800D02*
D03*
Y6527800D02*
D03*
X8864600Y5257800D02*
D03*
X8737600Y5003800D02*
D03*
Y5511800D02*
D03*
Y4495800D02*
D03*
X8864600Y4241800D02*
D03*
X8610600D02*
D03*
Y5257800D02*
D03*
X8483600Y5003800D02*
D03*
X8356600Y5257800D02*
D03*
X8610600Y4749800D02*
D03*
X8483600Y4495800D02*
D03*
X8356600Y6273800D02*
D03*
Y5765800D02*
D03*
X8229600Y6019800D02*
D03*
Y5511800D02*
D03*
X8318500Y3873500D02*
D03*
X8140700Y3784600D02*
D03*
X5816600Y3797300D02*
D03*
Y3987800D02*
D03*
X8318500Y3683000D02*
D03*
Y3492500D02*
D03*
X8140700Y3403600D02*
D03*
X8318500Y3302000D02*
D03*
Y3111500D02*
D03*
X8140700Y3213100D02*
D03*
Y3594100D02*
D03*
X5816600Y3416300D02*
D03*
Y3606800D02*
D03*
Y3225800D02*
D03*
X8318500Y2159000D02*
D03*
Y2349500D02*
D03*
Y1778000D02*
D03*
Y1968500D02*
D03*
Y2921000D02*
D03*
X8140700Y2832100D02*
D03*
Y3022600D02*
D03*
X8318500Y2730500D02*
D03*
Y2540000D02*
D03*
Y1397000D02*
D03*
Y1206500D02*
D03*
Y1587500D02*
D03*
Y825500D02*
D03*
Y1016000D02*
D03*
X8140700Y927100D02*
D03*
Y736600D02*
D03*
Y2641600D02*
D03*
X5816600Y2844800D02*
D03*
Y2654300D02*
D03*
Y3035300D02*
D03*
Y2273300D02*
D03*
Y2082800D02*
D03*
Y2463800D02*
D03*
Y939800D02*
D03*
Y1701800D02*
D03*
Y1511300D02*
D03*
Y1892300D02*
D03*
Y1130300D02*
D03*
Y1320800D02*
D03*
X11722100Y6591300D02*
D03*
X11976100D02*
D03*
X12230100D02*
D03*
X11849100Y6464300D02*
D03*
X12357100D02*
D03*
X12103100D02*
D03*
X6642100Y5321300D02*
D03*
Y5829300D02*
D03*
Y6337300D02*
D03*
Y6845300D02*
D03*
Y7353300D02*
D03*
Y7861300D02*
D03*
X6515100Y8115300D02*
D03*
Y7607300D02*
D03*
Y7099300D02*
D03*
Y6591300D02*
D03*
Y6083300D02*
D03*
Y5575300D02*
D03*
Y5067300D02*
D03*
X6388100Y4813300D02*
D03*
X4864100D02*
D03*
X4991100Y5067300D02*
D03*
X4864100Y5321300D02*
D03*
X4991100Y5575300D02*
D03*
X4864100Y5829300D02*
D03*
X5118100D02*
D03*
X4864100Y6337300D02*
D03*
X4991100Y6083300D02*
D03*
X5118100Y6337300D02*
D03*
X4991100Y6591300D02*
D03*
X5118100Y4813300D02*
D03*
X5372100D02*
D03*
X5880100D02*
D03*
X6134100D02*
D03*
X5245100Y8115300D02*
D03*
X6261100Y7607300D02*
D03*
X6007100D02*
D03*
X5499100D02*
D03*
X5753100D02*
D03*
X5245100D02*
D03*
X6388100Y7353300D02*
D03*
X6134100D02*
D03*
X5880100D02*
D03*
X5626100D02*
D03*
X5372100D02*
D03*
X6388100Y7861300D02*
D03*
X6134100D02*
D03*
X5880100D02*
D03*
X5626100D02*
D03*
X5372100D02*
D03*
X6261100Y8115300D02*
D03*
X6007100D02*
D03*
X5753100D02*
D03*
X6388100Y6845300D02*
D03*
X6134100D02*
D03*
X5880100D02*
D03*
X5372100D02*
D03*
X5626100D02*
D03*
X5118100D02*
D03*
X6261100Y6591300D02*
D03*
X6007100D02*
D03*
X5753100D02*
D03*
X5499100D02*
D03*
X5245100D02*
D03*
X6261100Y7099300D02*
D03*
X6007100D02*
D03*
X5753100D02*
D03*
X5499100D02*
D03*
X5245100D02*
D03*
X6261100Y6083300D02*
D03*
X6007100D02*
D03*
X5499100D02*
D03*
X5753100D02*
D03*
X5245100D02*
D03*
X6388100Y5829300D02*
D03*
X6134100D02*
D03*
X5880100D02*
D03*
X5626100D02*
D03*
X5372100D02*
D03*
X6388100Y6337300D02*
D03*
X6134100D02*
D03*
X5880100D02*
D03*
X5626100D02*
D03*
X5372100D02*
D03*
X6388100Y5321300D02*
D03*
X6134100D02*
D03*
X5880100D02*
D03*
X5372100D02*
D03*
X5626100D02*
D03*
X5118100D02*
D03*
X6261100Y5067300D02*
D03*
X6007100D02*
D03*
X5753100D02*
D03*
X5499100D02*
D03*
X5245100D02*
D03*
X6261100Y5575300D02*
D03*
X6007100D02*
D03*
X5753100D02*
D03*
X5499100D02*
D03*
X5245100D02*
D03*
X5118100Y7861300D02*
D03*
X5499100Y8115300D02*
D03*
X5118100Y7353300D02*
D03*
D55*
X14236700Y7988300D02*
D03*
D56*
X10350500Y3695700D02*
D03*
X11638280Y2603500D02*
D03*
X11654300Y1866900D02*
D03*
X10624820Y1805940D02*
D03*
X14389101Y4495800D02*
D03*
X12357100D02*
D03*
X11689080Y2128520D02*
D03*
X9867900Y2468880D02*
D03*
X9859367Y2257822D02*
D03*
%TF.MD5,edc7a0b71a9127eac115d9217136fb82*%
M02*
