%TF.GenerationSoftware,Altium Limited,Altium Designer,26.7.1 (11)*%
G04 Layer_Physical_Order=2*
G04 Layer_Color=16711680*
G04 Board_Origin=9950000|19600000*
%FSLAX45Y45*%
%MOMM*%
%TF.SameCoordinates,27E0BA80-5853-4340-B22E-DC7C430619DA*%
%TF.FilePolarity,Positive*%
%TF.FileFunction,Copper,L2,Bot,Signal*%
%TF.Part,Single*%
G01*
G75*
%TA.AperFunction,SMDPad,CuDef*%
%ADD20R,1.45000X0.95000*%
%TA.AperFunction,Conductor*%
%ADD43C,0.50800*%
%ADD44C,0.25400*%
%ADD45C,0.76200*%
%TA.AperFunction,ViaPad*%
%ADD46C,3.81000*%
%TA.AperFunction,ComponentPad*%
%ADD47C,10.00000*%
%ADD48C,1.20000*%
%ADD49C,3.81000*%
%ADD50C,2.00000*%
%ADD51C,1.98120*%
%TA.AperFunction,ViaPad*%
%ADD52C,3.20000*%
%ADD53C,0.91440*%
%ADD54C,1.01600*%
%ADD55C,1.27000*%
%ADD56C,0.60960*%
%TA.AperFunction,SMDPad,CuDef*%
%ADD57R,2.70000X1.20000*%
%ADD58R,2.72000X1.37000*%
G36*
X12623800Y6494780D02*
Y5786120D01*
X12303760D01*
X12250420Y5839460D01*
X12245340D01*
Y6050280D01*
X12057380Y6238240D01*
X11285220D01*
Y6692900D01*
X12425680D01*
X12623800Y6494780D01*
D02*
G37*
G36*
X15102840Y6817360D02*
Y4886960D01*
X14869160Y4653280D01*
X13007339D01*
X12707620Y4953000D01*
Y6675120D01*
X12176760Y7205980D01*
Y7345680D01*
X12275820Y7444740D01*
X14475459D01*
X15102840Y6817360D01*
D02*
G37*
G36*
X6824980Y8125460D02*
Y6962140D01*
X7213600Y6573520D01*
X7414260D01*
X7480300Y6507480D01*
Y6243320D01*
X7414260Y6177280D01*
X7101840D01*
X6939280Y6014720D01*
Y5651500D01*
X7122160Y5468620D01*
X7353300D01*
X7480300Y5341620D01*
Y5153660D01*
X7386320Y5059680D01*
X6944360D01*
X6738620Y4853940D01*
Y4455160D01*
X6731001Y4447541D01*
X4668520Y4447540D01*
Y6085839D01*
X4511039Y6243320D01*
X4124960D01*
X3975100Y6393180D01*
X3975100Y6530340D01*
X4099560Y6654800D01*
X4505961D01*
X4871720Y7020557D01*
X4871720Y8082280D01*
X5163820Y8374380D01*
X6576060D01*
X6824980Y8125460D01*
D02*
G37*
G36*
X4660900Y8247380D02*
Y7249160D01*
X4429760Y7018020D01*
X4193540Y6781800D01*
X3830320D01*
X3708400Y6659880D01*
Y6268720D01*
X3919220Y6057900D01*
X4356100D01*
X4409440Y6004560D01*
X4409440Y5773420D01*
X4328160Y5692140D01*
X3924300D01*
X3888740Y5656580D01*
X3716020Y5483860D01*
Y5092700D01*
X3736340D01*
X3881120Y4947920D01*
X4208780D01*
X4328160Y4828540D01*
X4320540Y4820920D01*
Y4384040D01*
X4312920D01*
X4107180Y4178300D01*
X1816099D01*
X1574800Y4419600D01*
X1061720D01*
X200660Y5280660D01*
X200660Y7450660D01*
X1284400Y8534400D01*
X4373880Y8534400D01*
X4660900Y8247380D01*
D02*
G37*
G36*
X15201900Y4000500D02*
Y1308100D01*
X14071600Y177800D01*
X1181100D01*
X292100Y1066800D01*
Y4114800D01*
X419100Y4241800D01*
X1498600D01*
X1895155Y3845244D01*
X3774158D01*
X3783772Y3822033D01*
X3807400Y3786672D01*
X3837472Y3756600D01*
X3872833Y3732972D01*
X3912124Y3716697D01*
X3953836Y3708400D01*
X3996364D01*
X4038076Y3716697D01*
X4077367Y3732972D01*
X4112728Y3756600D01*
X4142800Y3786672D01*
X4166428Y3822033D01*
X4176042Y3845244D01*
X5171756D01*
X5524500Y3492500D01*
X5524500Y875090D01*
Y484451D01*
X6324600Y495300D01*
X6388100Y558800D01*
Y3733800D01*
X6515100Y3860800D01*
X7467600D01*
X7594600Y3733800D01*
Y558800D01*
X7658100Y495299D01*
X8737599Y495299D01*
X8864600Y622300D01*
Y3797300D01*
X8991600Y3924300D01*
X9309100D01*
X9436100Y3797300D01*
Y1732280D01*
X9664700Y1503680D01*
X12438380D01*
X12611100Y1676400D01*
X12611100Y3860800D01*
X13119099Y4368800D01*
X14833600D01*
X15201900Y4000500D01*
D02*
G37*
G36*
X11452860Y7462520D02*
X11564620Y7350760D01*
Y6893560D01*
X11452860Y6781800D01*
X11292840D01*
X11221720Y6710680D01*
X11221720Y6212840D01*
X11315700Y6118860D01*
X11574780D01*
X11643360Y6050280D01*
Y5712460D01*
X11567160Y5636260D01*
X11318240D01*
X11221720Y5539740D01*
Y5067300D01*
X11346180Y4942840D01*
X11544300Y4744720D01*
Y4180840D01*
X11371580Y4008120D01*
X8851900D01*
X8732520Y3888740D01*
X8732520Y769620D01*
X8592820Y629920D01*
X7858760D01*
X7721600Y767080D01*
Y3845560D01*
X7620000Y3947160D01*
X6337300D01*
X6230620Y3840480D01*
X6230619Y690879D01*
X6174740Y635000D01*
X5768340Y635000D01*
X5717540Y685800D01*
Y4058920D01*
X5918200Y4259580D01*
X6951980D01*
X7040880Y4348480D01*
Y4785360D01*
X7198360Y4942840D01*
X7526020D01*
X7630160Y5046980D01*
Y5582920D01*
X7536180Y5676900D01*
X7190740D01*
X7134860Y5732780D01*
X7134860Y6017260D01*
X7193280Y6075680D01*
X7627620D01*
X7713980Y6162040D01*
Y6705600D01*
X7564120Y6855460D01*
X7345680D01*
X7218680Y6982460D01*
X7218680Y7343140D01*
X7338060Y7462520D01*
X11452860Y7462520D01*
D02*
G37*
%LPC*%
G36*
X10984043Y5978200D02*
X10961557D01*
X10939837Y5972380D01*
X10920363Y5961137D01*
X10904463Y5945237D01*
X10893220Y5925763D01*
X10887400Y5904043D01*
Y5881557D01*
X10893220Y5859837D01*
X10904463Y5840363D01*
X10920363Y5824463D01*
X10939837Y5813220D01*
X10961557Y5807400D01*
X10984043D01*
X11005763Y5813220D01*
X11025237Y5824463D01*
X11041137Y5840363D01*
X11052380Y5859837D01*
X11058200Y5881557D01*
Y5904043D01*
X11052380Y5925763D01*
X11041137Y5945237D01*
X11025237Y5961137D01*
X11005763Y5972380D01*
X10984043Y5978200D01*
D02*
G37*
G36*
X10584043D02*
X10561557D01*
X10539837Y5972380D01*
X10520363Y5961137D01*
X10504463Y5945237D01*
X10493220Y5925763D01*
X10487400Y5904043D01*
Y5881557D01*
X10493220Y5859837D01*
X10504463Y5840363D01*
X10520363Y5824463D01*
X10539837Y5813220D01*
X10561557Y5807400D01*
X10584043D01*
X10605763Y5813220D01*
X10625237Y5824463D01*
X10641137Y5840363D01*
X10652380Y5859837D01*
X10658200Y5881557D01*
Y5904043D01*
X10652380Y5925763D01*
X10641137Y5945237D01*
X10625237Y5961137D01*
X10605763Y5972380D01*
X10584043Y5978200D01*
D02*
G37*
%LPD*%
D20*
X11643360Y2441920D02*
D03*
Y2246920D02*
D03*
D43*
X11343640Y599440D02*
Y1468120D01*
X11328400Y584200D02*
X11343640Y599440D01*
X12928600Y3543300D02*
Y3733800D01*
X12763500Y3898900D02*
X12928600Y3733800D01*
X11988800Y3898900D02*
X12763500D01*
X15176500Y3949700D02*
Y7048500D01*
X14236700Y7988300D02*
X15176500Y7048500D01*
D44*
X11879580Y2128520D02*
X12180570Y1827530D01*
X11689080Y2128520D02*
X11879580D01*
X9410700Y3695700D02*
X10350500D01*
X9283700Y3568700D02*
X9410700Y3695700D01*
X11638280Y2447000D02*
X11643360Y2441920D01*
X11638280Y2447000D02*
Y2603500D01*
X11560320Y1772920D02*
X11654300Y1866900D01*
X11113891Y1772920D02*
X11560320D01*
X10624820Y1805940D02*
X11080871D01*
X11113891Y1772920D01*
X12357100Y4495800D02*
X14389101D01*
X11643360Y2246920D02*
X11654280D01*
X11689080Y2128520D02*
Y2212120D01*
X11654280Y2246920D02*
X11689080Y2212120D01*
X9863634Y2464614D02*
X9867900Y2468880D01*
X9863634Y2262088D02*
Y2464614D01*
X9859367Y2257822D02*
X9863634Y2262088D01*
X4191000Y5314160D02*
X4485640Y5019520D01*
Y4129679D02*
Y5019520D01*
X4470761Y4114800D02*
X4485640Y4129679D01*
X4127500Y4114800D02*
X4470761D01*
X3949700Y3937000D02*
X4127500Y4114800D01*
D45*
X11468100Y5859160D02*
X11722660Y5604600D01*
X11908480D02*
X11930380Y5582700D01*
X11722660Y5604600D02*
X11908480D01*
X11922880Y6050420D02*
X11930380Y6042920D01*
Y5872700D02*
Y6042920D01*
D46*
X12298680Y1739900D02*
D03*
X9514840Y7246620D02*
D03*
X5633720Y4724400D02*
D03*
X12324080Y5265420D02*
D03*
X3975100Y3924300D02*
D03*
X14325600Y1892300D02*
D03*
X1155700Y1663700D02*
D03*
X14363699Y6946900D02*
D03*
X1143000Y7099300D02*
D03*
D47*
Y2794000D02*
D03*
X14350999Y2959100D02*
D03*
Y5842000D02*
D03*
X1143000D02*
D03*
D48*
X10972800Y5892800D02*
D03*
X13085420Y8051800D02*
D03*
X12885420Y8251800D02*
D03*
X13085420D02*
D03*
X12885420Y8051800D02*
D03*
X10572800Y5892800D02*
D03*
D49*
X3924300Y4572000D02*
D03*
Y7124700D02*
D03*
X11239500Y4572000D02*
D03*
Y7124700D02*
D03*
X7658100D02*
D03*
Y4572000D02*
D03*
D50*
X4191000Y5859160D02*
D03*
Y5314160D02*
D03*
Y6404160D02*
D03*
X11468100Y5314160D02*
D03*
Y6404160D02*
D03*
Y5859160D02*
D03*
D51*
X7327900Y5300980D02*
D03*
Y6388100D02*
D03*
Y5844540D02*
D03*
D52*
X500000Y500000D02*
D03*
Y8150000D02*
D03*
X14800000Y500000D02*
D03*
Y8150000D02*
D03*
D53*
X11343640Y1468120D02*
D03*
X12606020Y7330440D02*
D03*
X12331700Y7200900D02*
D03*
X12484100D02*
D03*
X12636500D02*
D03*
X12788900D02*
D03*
X12738100Y8064500D02*
D03*
X12585700Y8013700D02*
D03*
X12387227Y8014442D02*
D03*
X12885773Y7911358D02*
D03*
X12682573D02*
D03*
X12479373D02*
D03*
X12276173D02*
D03*
X12600940Y7769860D02*
D03*
D54*
X14198599Y4178300D02*
D03*
X14706599D02*
D03*
X13436600Y1765300D02*
D03*
X14706599Y3670300D02*
D03*
X14198599Y3924300D02*
D03*
X14452600Y4051300D02*
D03*
Y3797300D02*
D03*
X14706599Y3924300D02*
D03*
X3416300Y1765300D02*
D03*
X3162300D02*
D03*
X3289300Y2019300D02*
D03*
X3416300Y2273300D02*
D03*
X3162300D02*
D03*
X2578100Y1511300D02*
D03*
X3289300Y2527300D02*
D03*
X2933700Y2781300D02*
D03*
X3060700Y1511300D02*
D03*
X2806700D02*
D03*
X2933700Y1765300D02*
D03*
X3060700Y2019300D02*
D03*
X2806700D02*
D03*
Y2527300D02*
D03*
X2933700Y2273300D02*
D03*
X3060700Y2527300D02*
D03*
X2705100Y1765300D02*
D03*
X2451100D02*
D03*
X2578100Y2019300D02*
D03*
X2705100Y2273300D02*
D03*
X2451100D02*
D03*
Y2781300D02*
D03*
X2578100Y2527300D02*
D03*
X2705100Y2781300D02*
D03*
X1714500Y2273300D02*
D03*
X546100Y3543300D02*
D03*
X1612900Y2019300D02*
D03*
X495300Y2120900D02*
D03*
Y1866900D02*
D03*
Y1612900D02*
D03*
Y2374900D02*
D03*
X1536700Y3543300D02*
D03*
X1282700D02*
D03*
X1816100Y1511300D02*
D03*
X2324100D02*
D03*
X2070100D02*
D03*
X1562100D02*
D03*
X1689100Y1765300D02*
D03*
X2197100D02*
D03*
X1943100D02*
D03*
X774700Y3543300D02*
D03*
X1028700D02*
D03*
X1409700Y3797300D02*
D03*
X647700D02*
D03*
X1155700D02*
D03*
X901700D02*
D03*
X2324100Y2019300D02*
D03*
X1816100D02*
D03*
X1663700Y3797300D02*
D03*
X2070100Y2019300D02*
D03*
X6870700Y1066800D02*
D03*
Y1257300D02*
D03*
Y685800D02*
D03*
Y876300D02*
D03*
X7048500Y1155700D02*
D03*
Y774700D02*
D03*
Y965200D02*
D03*
X6870700Y1447800D02*
D03*
Y2019300D02*
D03*
Y1638300D02*
D03*
Y1828800D02*
D03*
X7048500Y1536700D02*
D03*
Y1346200D02*
D03*
X8940800Y1384300D02*
D03*
X7048500Y1727200D02*
D03*
Y1917700D02*
D03*
X1816100Y2527300D02*
D03*
X1943100Y2273300D02*
D03*
X2070100Y2527300D02*
D03*
X1943100Y2781300D02*
D03*
X2197100D02*
D03*
X2070100Y3035300D02*
D03*
X2197100Y2273300D02*
D03*
X2324100Y2527300D02*
D03*
Y3035300D02*
D03*
X1816100D02*
D03*
X1943100Y3289300D02*
D03*
X1816100Y3543300D02*
D03*
X2070100D02*
D03*
X1943100Y3797300D02*
D03*
X2197100Y3289300D02*
D03*
X2324100Y3543300D02*
D03*
X2197100Y3797300D02*
D03*
X6870700Y2209800D02*
D03*
Y2400300D02*
D03*
Y2781300D02*
D03*
Y2590800D02*
D03*
X7048500Y2870200D02*
D03*
Y2298700D02*
D03*
Y2108200D02*
D03*
X8940800Y2197100D02*
D03*
X7048500Y2489200D02*
D03*
Y2679700D02*
D03*
X6870700Y2971800D02*
D03*
Y3162300D02*
D03*
Y3543300D02*
D03*
Y3733800D02*
D03*
Y3352800D02*
D03*
X7048500Y3632200D02*
D03*
Y3060700D02*
D03*
X9131300Y3035300D02*
D03*
X8940800D02*
D03*
X7048500Y3251200D02*
D03*
Y3441700D02*
D03*
X9283700Y1282700D02*
D03*
Y901700D02*
D03*
Y1092200D02*
D03*
X9131300Y1384300D02*
D03*
X9283700Y1473200D02*
D03*
X9131300Y2197100D02*
D03*
X9283700Y1854200D02*
D03*
Y2044700D02*
D03*
Y2616200D02*
D03*
Y2806700D02*
D03*
Y2235200D02*
D03*
Y2425700D02*
D03*
Y1663700D02*
D03*
X12928600Y2019300D02*
D03*
X13182600Y1892300D02*
D03*
X14198599Y3670300D02*
D03*
X13690601Y1892300D02*
D03*
X13436600Y2019300D02*
D03*
X13182600Y2146300D02*
D03*
X13944600Y3543300D02*
D03*
X13690601Y2146300D02*
D03*
X12928600Y2273300D02*
D03*
X13182600Y2400300D02*
D03*
X12928600Y2781300D02*
D03*
Y2527300D02*
D03*
X13182600Y2654300D02*
D03*
X13436600Y2273300D02*
D03*
X13944600Y3797300D02*
D03*
X13690601Y2400300D02*
D03*
X13436600Y2527300D02*
D03*
Y2781300D02*
D03*
X13690601Y2654300D02*
D03*
X9283700Y3378200D02*
D03*
Y2997200D02*
D03*
Y3187700D02*
D03*
Y3759200D02*
D03*
Y3568700D02*
D03*
X11988800Y3898900D02*
D03*
X12928600Y3035300D02*
D03*
X13182600Y2908300D02*
D03*
Y3162300D02*
D03*
X12928600Y3543300D02*
D03*
Y3289300D02*
D03*
X13182600Y3416300D02*
D03*
X13436600Y3035300D02*
D03*
X13690601Y2908300D02*
D03*
Y3162300D02*
D03*
X13436600Y3289300D02*
D03*
Y3543300D02*
D03*
X13690601Y3416300D02*
D03*
Y3670300D02*
D03*
X13182600D02*
D03*
X12992101Y6489700D02*
D03*
X13119099Y6235700D02*
D03*
X13373100D02*
D03*
X13627100D02*
D03*
X14135100Y6718300D02*
D03*
X12992101Y5981700D02*
D03*
X13500101D02*
D03*
X13246100D02*
D03*
X14135100Y7251700D02*
D03*
X13627100D02*
D03*
X13881100D02*
D03*
X13754100Y6997700D02*
D03*
X14008099D02*
D03*
X13246100Y6489700D02*
D03*
X13500101D02*
D03*
X13754100D02*
D03*
X14820900Y5067300D02*
D03*
X13881100Y6743700D02*
D03*
X13119099Y7251700D02*
D03*
X13423900Y7200900D02*
D03*
X13373100Y5765800D02*
D03*
X13119099D02*
D03*
X13627100D02*
D03*
X13246100Y5549900D02*
D03*
X12992101D02*
D03*
X13500101D02*
D03*
X13627100Y5308600D02*
D03*
X13373100D02*
D03*
X13881100Y5067300D02*
D03*
Y5321300D02*
D03*
X14109700Y4940300D02*
D03*
Y5194300D02*
D03*
X14338300Y4813300D02*
D03*
Y5067300D02*
D03*
X14617700Y4914900D02*
D03*
Y5168900D02*
D03*
X12992101Y6997700D02*
D03*
X13246100D02*
D03*
X13500101D02*
D03*
X13119099Y6743700D02*
D03*
X13627100D02*
D03*
X13373100D02*
D03*
X495300Y5549900D02*
D03*
Y5803900D02*
D03*
X515834Y6068879D02*
D03*
X495300Y6311900D02*
D03*
X292100Y6184900D02*
D03*
Y5930900D02*
D03*
Y5676900D02*
D03*
X8140700Y3975100D02*
D03*
Y2451100D02*
D03*
Y2260600D02*
D03*
Y2070100D02*
D03*
Y1879600D02*
D03*
Y1308100D02*
D03*
Y1498600D02*
D03*
Y1689100D02*
D03*
Y1117600D02*
D03*
X10007600Y6019800D02*
D03*
X9880600Y4749800D02*
D03*
X12484100Y6083300D02*
D03*
X1562100Y5321300D02*
D03*
X1435100Y5067300D02*
D03*
X1308100Y4813300D02*
D03*
X1435100Y4559300D02*
D03*
X1562100Y4813300D02*
D03*
X1689100Y4559300D02*
D03*
X673100Y6591300D02*
D03*
X419100D02*
D03*
X292100Y6845300D02*
D03*
X546100D02*
D03*
X1689100Y7099300D02*
D03*
X3594100Y7861300D02*
D03*
Y8369300D02*
D03*
X2070100D02*
D03*
Y7861300D02*
D03*
X1689100Y7607300D02*
D03*
X1943100Y4559300D02*
D03*
X2197100D02*
D03*
X2451100D02*
D03*
X2705100D02*
D03*
X2959100D02*
D03*
X1816100Y4305300D02*
D03*
X2324100D02*
D03*
X2070100D02*
D03*
X2578100D02*
D03*
X2832100D02*
D03*
X3086100D02*
D03*
X1816100Y5321300D02*
D03*
X2070100D02*
D03*
X2324100D02*
D03*
X2578100D02*
D03*
X2832100D02*
D03*
X1816100Y4813300D02*
D03*
X2070100D02*
D03*
X2324100D02*
D03*
X2578100D02*
D03*
X2832100D02*
D03*
X1689100Y5067300D02*
D03*
X2197100D02*
D03*
X1943100D02*
D03*
X2451100D02*
D03*
X2705100D02*
D03*
X2959100D02*
D03*
X1943100Y6083300D02*
D03*
X2197100D02*
D03*
X2451100D02*
D03*
X2705100D02*
D03*
X2959100D02*
D03*
X1943100Y5575300D02*
D03*
X2197100D02*
D03*
X2451100D02*
D03*
X2705100D02*
D03*
X2959100D02*
D03*
X1816100Y5829300D02*
D03*
X2324100D02*
D03*
X2070100D02*
D03*
X2578100D02*
D03*
X2832100D02*
D03*
X3086100D02*
D03*
X1816100Y6845300D02*
D03*
X2070100D02*
D03*
X2324100D02*
D03*
X2578100D02*
D03*
X2832100D02*
D03*
X1816100Y6337300D02*
D03*
X2070100D02*
D03*
X2324100D02*
D03*
X2578100D02*
D03*
X2832100D02*
D03*
X1689100Y6591300D02*
D03*
X2197100D02*
D03*
X1943100D02*
D03*
X2451100D02*
D03*
X2705100D02*
D03*
X2959100D02*
D03*
X3848100Y8369300D02*
D03*
X4102100D02*
D03*
X4356100D02*
D03*
X3848100Y7861300D02*
D03*
X4102100D02*
D03*
X4356100D02*
D03*
X3721100Y8115300D02*
D03*
X4229100D02*
D03*
X3975100D02*
D03*
X4483100D02*
D03*
X2324100Y8369300D02*
D03*
X2578100D02*
D03*
X2832100D02*
D03*
X3086100D02*
D03*
X3340100D02*
D03*
X2324100Y7861300D02*
D03*
X2578100D02*
D03*
X2832100D02*
D03*
X3086100D02*
D03*
X3340100D02*
D03*
X2197100Y8115300D02*
D03*
X2705100D02*
D03*
X2451100D02*
D03*
X2959100D02*
D03*
X3213100D02*
D03*
X3467100D02*
D03*
X1943100Y7607300D02*
D03*
X2197100D02*
D03*
X2451100D02*
D03*
X2705100D02*
D03*
X2959100D02*
D03*
X1943100Y7099300D02*
D03*
X2197100D02*
D03*
X2451100D02*
D03*
X2705100D02*
D03*
X2959100D02*
D03*
X1816100Y7353300D02*
D03*
X2324100D02*
D03*
X2070100D02*
D03*
X2578100D02*
D03*
X2832100D02*
D03*
X3086100D02*
D03*
X450000Y7550000D02*
D03*
X673100Y7607300D02*
D03*
X927100D02*
D03*
X1181100D02*
D03*
X1435100D02*
D03*
X419100Y7099300D02*
D03*
X673100D02*
D03*
X1435100D02*
D03*
X292100Y7353300D02*
D03*
X800100D02*
D03*
X546100D02*
D03*
X1054100D02*
D03*
X1308100D02*
D03*
X1562100D02*
D03*
X1943100Y8115300D02*
D03*
X1689100D02*
D03*
X1435100D02*
D03*
X950000Y8100000D02*
D03*
X1181100Y8115300D02*
D03*
X1816100Y7861300D02*
D03*
X1562100D02*
D03*
X1308100D02*
D03*
X1054100D02*
D03*
X800100D02*
D03*
X1816100Y8369300D02*
D03*
X1562100D02*
D03*
X1308100D02*
D03*
X11976100Y6337300D02*
D03*
X11722100D02*
D03*
X12484100D02*
D03*
X12357100Y5956300D02*
D03*
X12230100Y6337300D02*
D03*
X12357100Y6210300D02*
D03*
X5816600Y749300D02*
D03*
X10261600Y7035800D02*
D03*
X10134600Y7289800D02*
D03*
X10138075Y6805277D02*
D03*
X10261600Y6527800D02*
D03*
X10007600D02*
D03*
X9880600Y7289800D02*
D03*
X10007600Y7035800D02*
D03*
X9753600D02*
D03*
X9880600Y6781800D02*
D03*
X9753600Y6527800D02*
D03*
X9626600Y6781800D02*
D03*
X10134600Y6273800D02*
D03*
X9880600D02*
D03*
X9753600Y6019800D02*
D03*
X9880600Y5765800D02*
D03*
X10007600Y5511800D02*
D03*
X9626600Y5765800D02*
D03*
X9245600Y7035800D02*
D03*
X9372600Y6781800D02*
D03*
X9245600Y6527800D02*
D03*
X9118600Y7289800D02*
D03*
X8991600Y7035800D02*
D03*
X8864600Y7289800D02*
D03*
X9118600Y6781800D02*
D03*
X8991600Y6527800D02*
D03*
X8864600Y6781800D02*
D03*
X9499600Y6527800D02*
D03*
X9626600Y6273800D02*
D03*
X9372600D02*
D03*
X9499600Y6019800D02*
D03*
X9372600Y5765800D02*
D03*
X9245600Y5511800D02*
D03*
X9118600Y6273800D02*
D03*
X9245600Y6019800D02*
D03*
X8991600D02*
D03*
X9118600Y5765800D02*
D03*
X8991600Y5511800D02*
D03*
X8864600Y5765800D02*
D03*
X10007600Y4495800D02*
D03*
Y5003800D02*
D03*
X9880600Y5257800D02*
D03*
X9753600Y5003800D02*
D03*
Y5511800D02*
D03*
X9880600Y4241800D02*
D03*
X9499600Y5511800D02*
D03*
X9626600Y5257800D02*
D03*
X9372600D02*
D03*
X9499600Y5003800D02*
D03*
X9626600Y4749800D02*
D03*
X9372600D02*
D03*
X9118600Y5257800D02*
D03*
X9245600Y5003800D02*
D03*
X8991600D02*
D03*
X9118600Y4749800D02*
D03*
X8991600Y4495800D02*
D03*
X8864600Y4749800D02*
D03*
X9753600Y4495800D02*
D03*
X9626600Y4241800D02*
D03*
X9245600Y4495800D02*
D03*
X9499600D02*
D03*
X9118600Y4241800D02*
D03*
X9372600D02*
D03*
X8737600Y7035800D02*
D03*
Y6527800D02*
D03*
X8610600Y6273800D02*
D03*
X8864600D02*
D03*
X8737600Y6019800D02*
D03*
X8610600Y5765800D02*
D03*
Y7289800D02*
D03*
Y6781800D02*
D03*
X8483600Y7035800D02*
D03*
Y6019800D02*
D03*
Y5511800D02*
D03*
Y6527800D02*
D03*
X8864600Y5257800D02*
D03*
X8737600Y5003800D02*
D03*
Y5511800D02*
D03*
Y4495800D02*
D03*
X8864600Y4241800D02*
D03*
X8610600D02*
D03*
Y5257800D02*
D03*
X8483600Y5003800D02*
D03*
X8356600Y5257800D02*
D03*
X8610600Y4749800D02*
D03*
X8483600Y4495800D02*
D03*
X8356600Y6273800D02*
D03*
Y5765800D02*
D03*
X8229600Y6019800D02*
D03*
Y5511800D02*
D03*
X8318500Y3873500D02*
D03*
X8140700Y3784600D02*
D03*
X5816600Y3797300D02*
D03*
Y3987800D02*
D03*
X8318500Y3683000D02*
D03*
Y3492500D02*
D03*
X8140700Y3403600D02*
D03*
X8318500Y3302000D02*
D03*
Y3111500D02*
D03*
X8140700Y3213100D02*
D03*
Y3594100D02*
D03*
X5816600Y3416300D02*
D03*
Y3606800D02*
D03*
Y3225800D02*
D03*
X8318500Y2159000D02*
D03*
Y2349500D02*
D03*
Y1778000D02*
D03*
Y1968500D02*
D03*
Y2921000D02*
D03*
X8140700Y2832100D02*
D03*
Y3022600D02*
D03*
X8318500Y2730500D02*
D03*
Y2540000D02*
D03*
Y1397000D02*
D03*
Y1206500D02*
D03*
Y1587500D02*
D03*
Y825500D02*
D03*
Y1016000D02*
D03*
X8140700Y927100D02*
D03*
Y736600D02*
D03*
Y2641600D02*
D03*
X5816600Y2844800D02*
D03*
Y2654300D02*
D03*
Y3035300D02*
D03*
Y2273300D02*
D03*
Y2082800D02*
D03*
Y2463800D02*
D03*
Y939800D02*
D03*
Y1701800D02*
D03*
Y1511300D02*
D03*
Y1892300D02*
D03*
Y1130300D02*
D03*
Y1320800D02*
D03*
X11722100Y6591300D02*
D03*
X11976100D02*
D03*
X12230100D02*
D03*
X11849100Y6464300D02*
D03*
X12357100D02*
D03*
X12103100D02*
D03*
X6642100Y5321300D02*
D03*
Y5829300D02*
D03*
Y6337300D02*
D03*
Y6845300D02*
D03*
Y7353300D02*
D03*
Y7861300D02*
D03*
X6515100Y8115300D02*
D03*
Y7607300D02*
D03*
Y7099300D02*
D03*
Y6591300D02*
D03*
Y6083300D02*
D03*
Y5575300D02*
D03*
Y5067300D02*
D03*
X6388100Y4813300D02*
D03*
X4864100D02*
D03*
X4991100Y5067300D02*
D03*
X4864100Y5321300D02*
D03*
X4991100Y5575300D02*
D03*
X4864100Y5829300D02*
D03*
X5118100D02*
D03*
X4864100Y6337300D02*
D03*
X4991100Y6083300D02*
D03*
X5118100Y6337300D02*
D03*
X4991100Y6591300D02*
D03*
X5118100Y4813300D02*
D03*
X5372100D02*
D03*
X5880100D02*
D03*
X6134100D02*
D03*
X5245100Y8115300D02*
D03*
X6261100Y7607300D02*
D03*
X6007100D02*
D03*
X5499100D02*
D03*
X5753100D02*
D03*
X5245100D02*
D03*
X6388100Y7353300D02*
D03*
X6134100D02*
D03*
X5880100D02*
D03*
X5626100D02*
D03*
X5372100D02*
D03*
X6388100Y7861300D02*
D03*
X6134100D02*
D03*
X5880100D02*
D03*
X5626100D02*
D03*
X5372100D02*
D03*
X6261100Y8115300D02*
D03*
X6007100D02*
D03*
X5753100D02*
D03*
X6388100Y6845300D02*
D03*
X6134100D02*
D03*
X5880100D02*
D03*
X5372100D02*
D03*
X5626100D02*
D03*
X5118100D02*
D03*
X6261100Y6591300D02*
D03*
X6007100D02*
D03*
X5753100D02*
D03*
X5499100D02*
D03*
X5245100D02*
D03*
X6261100Y7099300D02*
D03*
X6007100D02*
D03*
X5753100D02*
D03*
X5499100D02*
D03*
X5245100D02*
D03*
X6261100Y6083300D02*
D03*
X6007100D02*
D03*
X5499100D02*
D03*
X5753100D02*
D03*
X5245100D02*
D03*
X6388100Y5829300D02*
D03*
X6134100D02*
D03*
X5880100D02*
D03*
X5626100D02*
D03*
X5372100D02*
D03*
X6388100Y6337300D02*
D03*
X6134100D02*
D03*
X5880100D02*
D03*
X5626100D02*
D03*
X5372100D02*
D03*
X6388100Y5321300D02*
D03*
X6134100D02*
D03*
X5880100D02*
D03*
X5372100D02*
D03*
X5626100D02*
D03*
X5118100D02*
D03*
X6261100Y5067300D02*
D03*
X6007100D02*
D03*
X5753100D02*
D03*
X5499100D02*
D03*
X5245100D02*
D03*
X6261100Y5575300D02*
D03*
X6007100D02*
D03*
X5753100D02*
D03*
X5499100D02*
D03*
X5245100D02*
D03*
X5118100Y7861300D02*
D03*
X5499100Y8115300D02*
D03*
X5118100Y7353300D02*
D03*
D55*
X14236700Y7988300D02*
D03*
D56*
X10350500Y3695700D02*
D03*
X11638280Y2603500D02*
D03*
X11654300Y1866900D02*
D03*
X10624820Y1805940D02*
D03*
X14389101Y4495800D02*
D03*
X12357100D02*
D03*
X11689080Y2128520D02*
D03*
X9867900Y2468880D02*
D03*
X9859367Y2257822D02*
D03*
D57*
X11930380Y5582700D02*
D03*
Y5872700D02*
D03*
D58*
X11922880Y6050420D02*
D03*
Y6334620D02*
D03*
%TF.MD5,5e731b29c3fe9d12de946c4f8ffc811a*%
M02*
