%TF.GenerationSoftware,Altium Limited,Altium Designer,26.7.1 (11)*%
G04 Layer_Color=8388736*
G04 Board_Origin=9950000|19600000*
%FSLAX45Y45*%
%MOMM*%
%TF.SameCoordinates,27E0BA80-5853-4340-B22E-DC7C430619DA*%
%TF.FilePolarity,Negative*%
%TF.FileFunction,Soldermask,Top*%
%TF.Part,Single*%
G01*
G75*
%TA.AperFunction,SMDPad,CuDef*%
%ADD11R,1.30822X0.80650*%
%ADD12R,1.90000X4.40000*%
%ADD13R,1.15312X5.50312*%
%ADD14R,2.46380X5.56260*%
%ADD15R,1.80000X1.05000*%
G04:AMPARAMS|DCode=16|XSize=0.55mm|YSize=0.5mm|CornerRadius=0.0625mm|HoleSize=0mm|Usage=FLASHONLY|Rotation=180.000|XOffset=0mm|YOffset=0mm|HoleType=Round|Shape=RoundedRectangle|*
%AMROUNDEDRECTD16*
21,1,0.55000,0.37500,0,0,180.0*
21,1,0.42500,0.50000,0,0,180.0*
1,1,0.12500,-0.21250,0.18750*
1,1,0.12500,0.21250,0.18750*
1,1,0.12500,0.21250,-0.18750*
1,1,0.12500,-0.21250,-0.18750*
%
%ADD16ROUNDEDRECTD16*%
%ADD17R,1.10464X1.70620*%
%ADD18R,1.44780X0.55320*%
%ADD19R,1.20651X1.50822*%
%ADD20R,1.45000X0.95000*%
%ADD21R,1.45620X1.37807*%
%ADD22O,2.20000X0.60000*%
%ADD23R,1.10000X1.00000*%
%ADD24R,0.55320X1.44780*%
%ADD25R,1.20000X1.20000*%
%ADD26R,2.18440X1.52400*%
%ADD27R,1.00650X1.40822*%
%ADD28R,0.80650X1.30822*%
%ADD29R,0.58684X1.35872*%
%ADD30R,2.67000X1.20000*%
%ADD31R,1.85000X1.35000*%
G04:AMPARAMS|DCode=32|XSize=0.55mm|YSize=0.5mm|CornerRadius=0.0625mm|HoleSize=0mm|Usage=FLASHONLY|Rotation=90.000|XOffset=0mm|YOffset=0mm|HoleType=Round|Shape=RoundedRectangle|*
%AMROUNDEDRECTD32*
21,1,0.55000,0.37500,0,0,90.0*
21,1,0.42500,0.50000,0,0,90.0*
1,1,0.12500,0.18750,0.21250*
1,1,0.12500,0.18750,-0.21250*
1,1,0.12500,-0.18750,-0.21250*
1,1,0.12500,-0.18750,0.21250*
%
%ADD32ROUNDEDRECTD32*%
%ADD33R,0.60000X0.35000*%
%ADD34R,0.35000X0.60000*%
%ADD35R,1.35000X0.85000*%
%ADD36R,1.35872X0.58684*%
%ADD37R,1.11120X0.45080*%
%ADD38R,0.65000X0.65000*%
%ADD39R,1.22000X0.40000*%
G04:AMPARAMS|DCode=40|XSize=0.76mm|YSize=0.6604mm|CornerRadius=0.08255mm|HoleSize=0mm|Usage=FLASHONLY|Rotation=180.000|XOffset=0mm|YOffset=0mm|HoleType=Round|Shape=RoundedRectangle|*
%AMROUNDEDRECTD40*
21,1,0.76000,0.49530,0,0,180.0*
21,1,0.59490,0.66040,0,0,180.0*
1,1,0.16510,-0.29745,0.24765*
1,1,0.16510,0.29745,0.24765*
1,1,0.16510,0.29745,-0.24765*
1,1,0.16510,-0.29745,-0.24765*
%
%ADD40ROUNDEDRECTD40*%
%ADD41R,0.60000X0.60000*%
%ADD42R,4.50000X1.30000*%
%TA.AperFunction,ViaPad*%
%ADD46C,3.81000*%
%TA.AperFunction,ComponentPad*%
%ADD47C,10.00000*%
%ADD48C,1.20000*%
%ADD49C,3.81000*%
%ADD50C,2.00000*%
%ADD51C,1.98120*%
%TA.AperFunction,ViaPad*%
%ADD52C,3.20000*%
%ADD53C,0.91440*%
%ADD54C,1.01600*%
%ADD56C,0.60960*%
%TA.AperFunction,NonConductor*%
%ADD71C,1.50000*%
D11*
X11945620Y5297166D02*
D03*
Y5126994D02*
D03*
D12*
X13373100Y4930800D02*
D03*
Y4060800D02*
D03*
D13*
X5484100Y2044700D02*
D03*
X3926600D02*
D03*
X4531600D02*
D03*
X4879100D02*
D03*
D14*
X6595110Y990600D02*
D03*
X9058910D02*
D03*
X7343140D02*
D03*
X6595110Y1778000D02*
D03*
X9058910D02*
D03*
X7343140D02*
D03*
X6595110Y2616200D02*
D03*
X9058910D02*
D03*
X7343140D02*
D03*
X6595110Y3467100D02*
D03*
X9058910D02*
D03*
X7343140D02*
D03*
X8543290D02*
D03*
X6079490D02*
D03*
X7858760D02*
D03*
X8543290Y2616200D02*
D03*
Y1778000D02*
D03*
Y990600D02*
D03*
X7858760Y2616200D02*
D03*
X6079490D02*
D03*
Y1778000D02*
D03*
X7858760D02*
D03*
X6079490Y990600D02*
D03*
X7858760D02*
D03*
D15*
X3945700Y2871720D02*
D03*
Y3126720D02*
D03*
D16*
X3454400Y2858220D02*
D03*
X3721100D02*
D03*
X3594100D02*
D03*
X3292410Y3406720D02*
D03*
X3721100Y2948220D02*
D03*
X3594100D02*
D03*
X3292410Y3316720D02*
D03*
X3454400Y2948220D02*
D03*
X3894900Y3259020D02*
D03*
Y3349020D02*
D03*
D17*
X3146522Y3601720D02*
D03*
X3406678D02*
D03*
D18*
X9690100Y1596670D02*
D03*
X10020300Y1749070D02*
D03*
X12407900Y2142770D02*
D03*
X10020300Y1984730D02*
D03*
X12357100Y4880330D02*
D03*
Y4644670D02*
D03*
X12407900Y2378430D02*
D03*
X9690100Y1832330D02*
D03*
X3247200Y2944890D02*
D03*
Y3180550D02*
D03*
D19*
X12106586Y1435100D02*
D03*
X12157386Y2882900D02*
D03*
X11896414Y1435100D02*
D03*
X11947214Y2882900D02*
D03*
D20*
X10502900Y1655100D02*
D03*
Y1850100D02*
D03*
D21*
X11112500Y1663494D02*
D03*
X12120880Y4157774D02*
D03*
X11112500Y1816306D02*
D03*
X12120880Y4310586D02*
D03*
D22*
X11884600Y1993900D02*
D03*
X11404600Y2628900D02*
D03*
X11884600Y1866900D02*
D03*
Y1739900D02*
D03*
Y2120900D02*
D03*
Y2247900D02*
D03*
Y2374900D02*
D03*
Y2501900D02*
D03*
Y2628900D02*
D03*
X11404600Y1739900D02*
D03*
Y1866900D02*
D03*
Y1993900D02*
D03*
Y2120900D02*
D03*
Y2247900D02*
D03*
Y2374900D02*
D03*
Y2501900D02*
D03*
D23*
X12192000Y2162700D02*
D03*
Y2307700D02*
D03*
D24*
X12678130Y2514600D02*
D03*
X12442470D02*
D03*
X12112270D02*
D03*
X12347930D02*
D03*
D25*
X13385800Y8037420D02*
D03*
Y7827420D02*
D03*
D26*
X1143000Y4114500D02*
D03*
Y4521500D02*
D03*
D27*
X11512714Y2882900D02*
D03*
X11080586Y1435100D02*
D03*
X10890414D02*
D03*
X11949594Y4884420D02*
D03*
X12139766D02*
D03*
X11702886Y2882900D02*
D03*
D28*
X12752066Y5867400D02*
D03*
X12581894D02*
D03*
D29*
X4363600Y1231900D02*
D03*
X4455100Y1417241D02*
D03*
X4546600Y1231900D02*
D03*
X4823400D02*
D03*
X5006400D02*
D03*
X4914900Y1417241D02*
D03*
D30*
X12412980Y7315560D02*
D03*
X12793980Y7320460D02*
D03*
Y7787460D02*
D03*
X12412980Y7782560D02*
D03*
D31*
X13362939Y7327800D02*
D03*
Y7632800D02*
D03*
D32*
X4300940Y4483100D02*
D03*
X10782300Y2120900D02*
D03*
X10872300D02*
D03*
X3726900Y3500120D02*
D03*
X3816900D02*
D03*
X4693200Y4483100D02*
D03*
X4390940D02*
D03*
X4603200D02*
D03*
D33*
X10176800Y1906500D02*
D03*
X10371800D02*
D03*
Y1841500D02*
D03*
Y1776500D02*
D03*
X10176800D02*
D03*
Y1841500D02*
D03*
D34*
X9845500Y1968500D02*
D03*
X9715500D02*
D03*
X9780500D02*
D03*
X9845500Y2163500D02*
D03*
X9780500D02*
D03*
X9715500D02*
D03*
D35*
X10007600Y2178100D02*
D03*
X10502900Y1987600D02*
D03*
X10007600Y2343100D02*
D03*
X10502900Y2152600D02*
D03*
X9537700Y2343100D02*
D03*
Y2178100D02*
D03*
D36*
X5464771Y1340177D02*
D03*
X5279429Y1431677D02*
D03*
Y1248677D02*
D03*
D37*
X11943080Y4668820D02*
D03*
Y4528820D02*
D03*
X12123080Y4598820D02*
D03*
D38*
X3594100Y3600120D02*
D03*
Y3500120D02*
D03*
D39*
X3721100Y3312620D02*
D03*
Y3247620D02*
D03*
Y3182620D02*
D03*
Y3117620D02*
D03*
X3459100D02*
D03*
Y3182620D02*
D03*
Y3247620D02*
D03*
Y3312620D02*
D03*
D40*
X4352100Y3183520D02*
D03*
Y3043520D02*
D03*
D41*
X4174300Y3223520D02*
D03*
Y3003520D02*
D03*
D42*
X4775200Y3228820D02*
D03*
Y2653820D02*
D03*
D46*
X12298680Y1739900D02*
D03*
X9514840Y7246620D02*
D03*
X5633720Y4724400D02*
D03*
X12324080Y5265420D02*
D03*
X3975100Y3924300D02*
D03*
X14325600Y1892300D02*
D03*
X1155700Y1663700D02*
D03*
X14363699Y6946900D02*
D03*
X1143000Y7099300D02*
D03*
D47*
Y2794000D02*
D03*
X14350999Y2959100D02*
D03*
Y5842000D02*
D03*
X1143000D02*
D03*
D48*
X10972800Y5892800D02*
D03*
X13085420Y8051800D02*
D03*
X12885420Y8251800D02*
D03*
X13085420D02*
D03*
X12885420Y8051800D02*
D03*
X10572800Y5892800D02*
D03*
D49*
X3924300Y4572000D02*
D03*
Y7124700D02*
D03*
X11239500Y4572000D02*
D03*
Y7124700D02*
D03*
X7658100D02*
D03*
Y4572000D02*
D03*
D50*
X4191000Y5859160D02*
D03*
Y5314160D02*
D03*
Y6404160D02*
D03*
X11468100Y5314160D02*
D03*
Y6404160D02*
D03*
Y5859160D02*
D03*
D51*
X7327900Y5300980D02*
D03*
Y6388100D02*
D03*
Y5844540D02*
D03*
D52*
X500000Y500000D02*
D03*
Y8150000D02*
D03*
X14800000Y500000D02*
D03*
Y8150000D02*
D03*
D53*
X12606020Y7330440D02*
D03*
X12331700Y7200900D02*
D03*
X12484100D02*
D03*
X12636500D02*
D03*
X12788900D02*
D03*
X12738100Y8064500D02*
D03*
X12585700Y8013700D02*
D03*
X12387227Y8014442D02*
D03*
X12885773Y7911358D02*
D03*
X12682573D02*
D03*
X12479373D02*
D03*
X12276173D02*
D03*
X12600940Y7769860D02*
D03*
D54*
X14198599Y4178300D02*
D03*
X14706599D02*
D03*
X13436600Y1765300D02*
D03*
X14706599Y3670300D02*
D03*
X14198599Y3924300D02*
D03*
X14452600Y4051300D02*
D03*
Y3797300D02*
D03*
X14706599Y3924300D02*
D03*
X3416300Y1765300D02*
D03*
X3162300D02*
D03*
X3289300Y2019300D02*
D03*
X3416300Y2273300D02*
D03*
X3162300D02*
D03*
X2578100Y1511300D02*
D03*
X3289300Y2527300D02*
D03*
X2933700Y2781300D02*
D03*
X3060700Y1511300D02*
D03*
X2806700D02*
D03*
X2933700Y1765300D02*
D03*
X3060700Y2019300D02*
D03*
X2806700D02*
D03*
Y2527300D02*
D03*
X2933700Y2273300D02*
D03*
X3060700Y2527300D02*
D03*
X2705100Y1765300D02*
D03*
X2451100D02*
D03*
X2578100Y2019300D02*
D03*
X2705100Y2273300D02*
D03*
X2451100D02*
D03*
Y2781300D02*
D03*
X2578100Y2527300D02*
D03*
X2705100Y2781300D02*
D03*
X1714500Y2273300D02*
D03*
X546100Y3543300D02*
D03*
X1612900Y2019300D02*
D03*
X495300Y2120900D02*
D03*
Y1866900D02*
D03*
Y1612900D02*
D03*
Y2374900D02*
D03*
X1536700Y3543300D02*
D03*
X1282700D02*
D03*
X1816100Y1511300D02*
D03*
X2324100D02*
D03*
X2070100D02*
D03*
X1562100D02*
D03*
X1689100Y1765300D02*
D03*
X2197100D02*
D03*
X1943100D02*
D03*
X774700Y3543300D02*
D03*
X1028700D02*
D03*
X1409700Y3797300D02*
D03*
X647700D02*
D03*
X1155700D02*
D03*
X901700D02*
D03*
X2324100Y2019300D02*
D03*
X1816100D02*
D03*
X1663700Y3797300D02*
D03*
X2070100Y2019300D02*
D03*
X6870700Y1066800D02*
D03*
Y1257300D02*
D03*
Y685800D02*
D03*
Y876300D02*
D03*
X7048500Y1155700D02*
D03*
Y774700D02*
D03*
Y965200D02*
D03*
X6870700Y1447800D02*
D03*
Y2019300D02*
D03*
Y1638300D02*
D03*
Y1828800D02*
D03*
X7048500Y1536700D02*
D03*
Y1346200D02*
D03*
X8940800Y1384300D02*
D03*
X7048500Y1727200D02*
D03*
Y1917700D02*
D03*
X1816100Y2527300D02*
D03*
X1943100Y2273300D02*
D03*
X2070100Y2527300D02*
D03*
X1943100Y2781300D02*
D03*
X2197100D02*
D03*
X2070100Y3035300D02*
D03*
X2197100Y2273300D02*
D03*
X2324100Y2527300D02*
D03*
Y3035300D02*
D03*
X1816100D02*
D03*
X1943100Y3289300D02*
D03*
X1816100Y3543300D02*
D03*
X2070100D02*
D03*
X1943100Y3797300D02*
D03*
X2197100Y3289300D02*
D03*
X2324100Y3543300D02*
D03*
X2197100Y3797300D02*
D03*
X6870700Y2209800D02*
D03*
Y2400300D02*
D03*
Y2781300D02*
D03*
Y2590800D02*
D03*
X7048500Y2870200D02*
D03*
Y2298700D02*
D03*
Y2108200D02*
D03*
X8940800Y2197100D02*
D03*
X7048500Y2489200D02*
D03*
Y2679700D02*
D03*
X6870700Y2971800D02*
D03*
Y3162300D02*
D03*
Y3543300D02*
D03*
Y3733800D02*
D03*
Y3352800D02*
D03*
X7048500Y3632200D02*
D03*
Y3060700D02*
D03*
X9131300Y3035300D02*
D03*
X8940800D02*
D03*
X7048500Y3251200D02*
D03*
Y3441700D02*
D03*
X9283700Y1282700D02*
D03*
Y901700D02*
D03*
Y1092200D02*
D03*
X9131300Y1384300D02*
D03*
X9283700Y1473200D02*
D03*
X9131300Y2197100D02*
D03*
X9283700Y1854200D02*
D03*
Y2044700D02*
D03*
Y2616200D02*
D03*
Y2806700D02*
D03*
Y2235200D02*
D03*
Y2425700D02*
D03*
Y1663700D02*
D03*
X12928600Y2019300D02*
D03*
X13182600Y1892300D02*
D03*
X14198599Y3670300D02*
D03*
X13690601Y1892300D02*
D03*
X13436600Y2019300D02*
D03*
X13182600Y2146300D02*
D03*
X13944600Y3543300D02*
D03*
X13690601Y2146300D02*
D03*
X12928600Y2273300D02*
D03*
X13182600Y2400300D02*
D03*
X12928600Y2781300D02*
D03*
Y2527300D02*
D03*
X13182600Y2654300D02*
D03*
X13436600Y2273300D02*
D03*
X13944600Y3797300D02*
D03*
X13690601Y2400300D02*
D03*
X13436600Y2527300D02*
D03*
Y2781300D02*
D03*
X13690601Y2654300D02*
D03*
X9283700Y3378200D02*
D03*
Y2997200D02*
D03*
Y3187700D02*
D03*
Y3759200D02*
D03*
Y3568700D02*
D03*
X12928600Y3035300D02*
D03*
X13182600Y2908300D02*
D03*
Y3162300D02*
D03*
X12928600Y3543300D02*
D03*
Y3289300D02*
D03*
X13182600Y3416300D02*
D03*
X13436600Y3035300D02*
D03*
X13690601Y2908300D02*
D03*
Y3162300D02*
D03*
X13436600Y3289300D02*
D03*
Y3543300D02*
D03*
X13690601Y3416300D02*
D03*
Y3670300D02*
D03*
X13182600D02*
D03*
X12992101Y6489700D02*
D03*
X13119099Y6235700D02*
D03*
X13373100D02*
D03*
X13627100D02*
D03*
X14135100Y6718300D02*
D03*
X12992101Y5981700D02*
D03*
X13500101D02*
D03*
X13246100D02*
D03*
X14135100Y7251700D02*
D03*
X13627100D02*
D03*
X13881100D02*
D03*
X13754100Y6997700D02*
D03*
X14008099D02*
D03*
X13246100Y6489700D02*
D03*
X13500101D02*
D03*
X13754100D02*
D03*
X14820900Y5067300D02*
D03*
X13881100Y6743700D02*
D03*
X13119099Y7251700D02*
D03*
X13423900Y7200900D02*
D03*
X13373100Y5765800D02*
D03*
X13119099D02*
D03*
X13627100D02*
D03*
X13246100Y5549900D02*
D03*
X12992101D02*
D03*
X13500101D02*
D03*
X13627100Y5308600D02*
D03*
X13373100D02*
D03*
X13881100Y5067300D02*
D03*
Y5321300D02*
D03*
X14109700Y4940300D02*
D03*
Y5194300D02*
D03*
X14338300Y4813300D02*
D03*
Y5067300D02*
D03*
X14617700Y4914900D02*
D03*
Y5168900D02*
D03*
X12992101Y6997700D02*
D03*
X13246100D02*
D03*
X13500101D02*
D03*
X13119099Y6743700D02*
D03*
X13627100D02*
D03*
X13373100D02*
D03*
X495300Y5549900D02*
D03*
Y5803900D02*
D03*
X515834Y6068879D02*
D03*
X495300Y6311900D02*
D03*
X292100Y6184900D02*
D03*
Y5930900D02*
D03*
Y5676900D02*
D03*
X8140700Y3975100D02*
D03*
Y2451100D02*
D03*
Y2260600D02*
D03*
Y2070100D02*
D03*
Y1879600D02*
D03*
Y1308100D02*
D03*
Y1498600D02*
D03*
Y1689100D02*
D03*
Y1117600D02*
D03*
X10007600Y6019800D02*
D03*
X9880600Y4749800D02*
D03*
X12484100Y6083300D02*
D03*
X1562100Y5321300D02*
D03*
X1435100Y5067300D02*
D03*
X1308100Y4813300D02*
D03*
X1435100Y4559300D02*
D03*
X1562100Y4813300D02*
D03*
X1689100Y4559300D02*
D03*
X673100Y6591300D02*
D03*
X419100D02*
D03*
X292100Y6845300D02*
D03*
X546100D02*
D03*
X1689100Y7099300D02*
D03*
X3594100Y7861300D02*
D03*
Y8369300D02*
D03*
X2070100D02*
D03*
Y7861300D02*
D03*
X1689100Y7607300D02*
D03*
X1943100Y4559300D02*
D03*
X2197100D02*
D03*
X2451100D02*
D03*
X2705100D02*
D03*
X2959100D02*
D03*
X1816100Y4305300D02*
D03*
X2324100D02*
D03*
X2070100D02*
D03*
X2578100D02*
D03*
X2832100D02*
D03*
X3086100D02*
D03*
X1816100Y5321300D02*
D03*
X2070100D02*
D03*
X2324100D02*
D03*
X2578100D02*
D03*
X2832100D02*
D03*
X1816100Y4813300D02*
D03*
X2070100D02*
D03*
X2324100D02*
D03*
X2578100D02*
D03*
X2832100D02*
D03*
X1689100Y5067300D02*
D03*
X2197100D02*
D03*
X1943100D02*
D03*
X2451100D02*
D03*
X2705100D02*
D03*
X2959100D02*
D03*
X1943100Y6083300D02*
D03*
X2197100D02*
D03*
X2451100D02*
D03*
X2705100D02*
D03*
X2959100D02*
D03*
X1943100Y5575300D02*
D03*
X2197100D02*
D03*
X2451100D02*
D03*
X2705100D02*
D03*
X2959100D02*
D03*
X1816100Y5829300D02*
D03*
X2324100D02*
D03*
X2070100D02*
D03*
X2578100D02*
D03*
X2832100D02*
D03*
X3086100D02*
D03*
X1816100Y6845300D02*
D03*
X2070100D02*
D03*
X2324100D02*
D03*
X2578100D02*
D03*
X2832100D02*
D03*
X1816100Y6337300D02*
D03*
X2070100D02*
D03*
X2324100D02*
D03*
X2578100D02*
D03*
X2832100D02*
D03*
X1689100Y6591300D02*
D03*
X2197100D02*
D03*
X1943100D02*
D03*
X2451100D02*
D03*
X2705100D02*
D03*
X2959100D02*
D03*
X3848100Y8369300D02*
D03*
X4102100D02*
D03*
X4356100D02*
D03*
X3848100Y7861300D02*
D03*
X4102100D02*
D03*
X4356100D02*
D03*
X3721100Y8115300D02*
D03*
X4229100D02*
D03*
X3975100D02*
D03*
X4483100D02*
D03*
X2324100Y8369300D02*
D03*
X2578100D02*
D03*
X2832100D02*
D03*
X3086100D02*
D03*
X3340100D02*
D03*
X2324100Y7861300D02*
D03*
X2578100D02*
D03*
X2832100D02*
D03*
X3086100D02*
D03*
X3340100D02*
D03*
X2197100Y8115300D02*
D03*
X2705100D02*
D03*
X2451100D02*
D03*
X2959100D02*
D03*
X3213100D02*
D03*
X3467100D02*
D03*
X1943100Y7607300D02*
D03*
X2197100D02*
D03*
X2451100D02*
D03*
X2705100D02*
D03*
X2959100D02*
D03*
X1943100Y7099300D02*
D03*
X2197100D02*
D03*
X2451100D02*
D03*
X2705100D02*
D03*
X2959100D02*
D03*
X1816100Y7353300D02*
D03*
X2324100D02*
D03*
X2070100D02*
D03*
X2578100D02*
D03*
X2832100D02*
D03*
X3086100D02*
D03*
X450000Y7550000D02*
D03*
X673100Y7607300D02*
D03*
X927100D02*
D03*
X1181100D02*
D03*
X1435100D02*
D03*
X419100Y7099300D02*
D03*
X673100D02*
D03*
X1435100D02*
D03*
X292100Y7353300D02*
D03*
X800100D02*
D03*
X546100D02*
D03*
X1054100D02*
D03*
X1308100D02*
D03*
X1562100D02*
D03*
X1943100Y8115300D02*
D03*
X1689100D02*
D03*
X1435100D02*
D03*
X950000Y8100000D02*
D03*
X1181100Y8115300D02*
D03*
X1816100Y7861300D02*
D03*
X1562100D02*
D03*
X1308100D02*
D03*
X1054100D02*
D03*
X800100D02*
D03*
X1816100Y8369300D02*
D03*
X1562100D02*
D03*
X1308100D02*
D03*
X11976100Y6337300D02*
D03*
X11722100D02*
D03*
X12484100D02*
D03*
X12357100Y5956300D02*
D03*
X12230100Y6337300D02*
D03*
X12357100Y6210300D02*
D03*
X5816600Y749300D02*
D03*
X10261600Y7035800D02*
D03*
X10134600Y7289800D02*
D03*
X10138075Y6805277D02*
D03*
X10261600Y6527800D02*
D03*
X10007600D02*
D03*
X9880600Y7289800D02*
D03*
X10007600Y7035800D02*
D03*
X9753600D02*
D03*
X9880600Y6781800D02*
D03*
X9753600Y6527800D02*
D03*
X9626600Y6781800D02*
D03*
X10134600Y6273800D02*
D03*
X9880600D02*
D03*
X9753600Y6019800D02*
D03*
X9880600Y5765800D02*
D03*
X10007600Y5511800D02*
D03*
X9626600Y5765800D02*
D03*
X9245600Y7035800D02*
D03*
X9372600Y6781800D02*
D03*
X9245600Y6527800D02*
D03*
X9118600Y7289800D02*
D03*
X8991600Y7035800D02*
D03*
X8864600Y7289800D02*
D03*
X9118600Y6781800D02*
D03*
X8991600Y6527800D02*
D03*
X8864600Y6781800D02*
D03*
X9499600Y6527800D02*
D03*
X9626600Y6273800D02*
D03*
X9372600D02*
D03*
X9499600Y6019800D02*
D03*
X9372600Y5765800D02*
D03*
X9245600Y5511800D02*
D03*
X9118600Y6273800D02*
D03*
X9245600Y6019800D02*
D03*
X8991600D02*
D03*
X9118600Y5765800D02*
D03*
X8991600Y5511800D02*
D03*
X8864600Y5765800D02*
D03*
X10007600Y4495800D02*
D03*
Y5003800D02*
D03*
X9880600Y5257800D02*
D03*
X9753600Y5003800D02*
D03*
Y5511800D02*
D03*
X9880600Y4241800D02*
D03*
X9499600Y5511800D02*
D03*
X9626600Y5257800D02*
D03*
X9372600D02*
D03*
X9499600Y5003800D02*
D03*
X9626600Y4749800D02*
D03*
X9372600D02*
D03*
X9118600Y5257800D02*
D03*
X9245600Y5003800D02*
D03*
X8991600D02*
D03*
X9118600Y4749800D02*
D03*
X8991600Y4495800D02*
D03*
X8864600Y4749800D02*
D03*
X9753600Y4495800D02*
D03*
X9626600Y4241800D02*
D03*
X9245600Y4495800D02*
D03*
X9499600D02*
D03*
X9118600Y4241800D02*
D03*
X9372600D02*
D03*
X8737600Y7035800D02*
D03*
Y6527800D02*
D03*
X8610600Y6273800D02*
D03*
X8864600D02*
D03*
X8737600Y6019800D02*
D03*
X8610600Y5765800D02*
D03*
Y7289800D02*
D03*
Y6781800D02*
D03*
X8483600Y7035800D02*
D03*
Y6019800D02*
D03*
Y5511800D02*
D03*
Y6527800D02*
D03*
X8864600Y5257800D02*
D03*
X8737600Y5003800D02*
D03*
Y5511800D02*
D03*
Y4495800D02*
D03*
X8864600Y4241800D02*
D03*
X8610600D02*
D03*
Y5257800D02*
D03*
X8483600Y5003800D02*
D03*
X8356600Y5257800D02*
D03*
X8610600Y4749800D02*
D03*
X8483600Y4495800D02*
D03*
X8356600Y6273800D02*
D03*
Y5765800D02*
D03*
X8229600Y6019800D02*
D03*
Y5511800D02*
D03*
X8318500Y3873500D02*
D03*
X8140700Y3784600D02*
D03*
X5816600Y3797300D02*
D03*
Y3987800D02*
D03*
X8318500Y3683000D02*
D03*
Y3492500D02*
D03*
X8140700Y3403600D02*
D03*
X8318500Y3302000D02*
D03*
Y3111500D02*
D03*
X8140700Y3213100D02*
D03*
Y3594100D02*
D03*
X5816600Y3416300D02*
D03*
Y3606800D02*
D03*
Y3225800D02*
D03*
X8318500Y2159000D02*
D03*
Y2349500D02*
D03*
Y1778000D02*
D03*
Y1968500D02*
D03*
Y2921000D02*
D03*
X8140700Y2832100D02*
D03*
Y3022600D02*
D03*
X8318500Y2730500D02*
D03*
Y2540000D02*
D03*
Y1397000D02*
D03*
Y1206500D02*
D03*
Y1587500D02*
D03*
Y825500D02*
D03*
Y1016000D02*
D03*
X8140700Y927100D02*
D03*
Y736600D02*
D03*
Y2641600D02*
D03*
X5816600Y2844800D02*
D03*
Y2654300D02*
D03*
Y3035300D02*
D03*
Y2273300D02*
D03*
Y2082800D02*
D03*
Y2463800D02*
D03*
Y939800D02*
D03*
Y1701800D02*
D03*
Y1511300D02*
D03*
Y1892300D02*
D03*
Y1130300D02*
D03*
Y1320800D02*
D03*
X11722100Y6591300D02*
D03*
X11976100D02*
D03*
X12230100D02*
D03*
X11849100Y6464300D02*
D03*
X12357100D02*
D03*
X12103100D02*
D03*
X6642100Y5321300D02*
D03*
Y5829300D02*
D03*
Y6337300D02*
D03*
Y6845300D02*
D03*
Y7353300D02*
D03*
Y7861300D02*
D03*
X6515100Y8115300D02*
D03*
Y7607300D02*
D03*
Y7099300D02*
D03*
Y6591300D02*
D03*
Y6083300D02*
D03*
Y5575300D02*
D03*
Y5067300D02*
D03*
X6388100Y4813300D02*
D03*
X4864100D02*
D03*
X4991100Y5067300D02*
D03*
X4864100Y5321300D02*
D03*
X4991100Y5575300D02*
D03*
X4864100Y5829300D02*
D03*
X5118100D02*
D03*
X4864100Y6337300D02*
D03*
X4991100Y6083300D02*
D03*
X5118100Y6337300D02*
D03*
X4991100Y6591300D02*
D03*
X5118100Y4813300D02*
D03*
X5372100D02*
D03*
X5880100D02*
D03*
X6134100D02*
D03*
X5245100Y8115300D02*
D03*
X6261100Y7607300D02*
D03*
X6007100D02*
D03*
X5499100D02*
D03*
X5753100D02*
D03*
X5245100D02*
D03*
X6388100Y7353300D02*
D03*
X6134100D02*
D03*
X5880100D02*
D03*
X5626100D02*
D03*
X5372100D02*
D03*
X6388100Y7861300D02*
D03*
X6134100D02*
D03*
X5880100D02*
D03*
X5626100D02*
D03*
X5372100D02*
D03*
X6261100Y8115300D02*
D03*
X6007100D02*
D03*
X5753100D02*
D03*
X6388100Y6845300D02*
D03*
X6134100D02*
D03*
X5880100D02*
D03*
X5372100D02*
D03*
X5626100D02*
D03*
X5118100D02*
D03*
X6261100Y6591300D02*
D03*
X6007100D02*
D03*
X5753100D02*
D03*
X5499100D02*
D03*
X5245100D02*
D03*
X6261100Y7099300D02*
D03*
X6007100D02*
D03*
X5753100D02*
D03*
X5499100D02*
D03*
X5245100D02*
D03*
X6261100Y6083300D02*
D03*
X6007100D02*
D03*
X5499100D02*
D03*
X5753100D02*
D03*
X5245100D02*
D03*
X6388100Y5829300D02*
D03*
X6134100D02*
D03*
X5880100D02*
D03*
X5626100D02*
D03*
X5372100D02*
D03*
X6388100Y6337300D02*
D03*
X6134100D02*
D03*
X5880100D02*
D03*
X5626100D02*
D03*
X5372100D02*
D03*
X6388100Y5321300D02*
D03*
X6134100D02*
D03*
X5880100D02*
D03*
X5372100D02*
D03*
X5626100D02*
D03*
X5118100D02*
D03*
X6261100Y5067300D02*
D03*
X6007100D02*
D03*
X5753100D02*
D03*
X5499100D02*
D03*
X5245100D02*
D03*
X6261100Y5575300D02*
D03*
X6007100D02*
D03*
X5753100D02*
D03*
X5499100D02*
D03*
X5245100D02*
D03*
X5118100Y7861300D02*
D03*
X5499100Y8115300D02*
D03*
X5118100Y7353300D02*
D03*
D56*
X11654300Y1866900D02*
D03*
D71*
X14207561Y7726680D02*
G03*
X14207561Y7726680I-75000J0D01*
G01*
X2800420Y970280D02*
G03*
X2800420Y970280I-75000J0D01*
G01*
X10829360Y3324860D02*
G03*
X10829360Y3324860I-75000J0D01*
G01*
%TF.MD5,33f3c65e6a0132cb542a476eec6e4d46*%
M02*
